<svg width="152" height="152" viewBox="0 0 152 152" fill="none" xmlns="http://www.w3.org/2000/svg">
<circle cx="76" cy="76" r="75.5" stroke="#343434"/>
<circle cx="76.5" cy="75.5" r="52.5" fill="#181818"/>
<circle cx="76.5" cy="75.5" r="65" stroke="#343434" stroke-opacity="0.5"/>
<rect x="31.5" y="56.5" width="39" height="38" rx="19" fill="#0F0F0F"/>
<rect x="31.5" y="56.5" width="39" height="38" rx="19" stroke="#343434"/>
<path d="M46 75C45.4091 75 44.8239 74.8836 44.2779 74.6575C43.732 74.4313 43.2359 74.0998 42.818 73.682C42.4002 73.2641 42.0687 72.768 41.8425 72.2221C41.6164 71.6761 41.5 71.0909 41.5 70.5C41.5 69.9091 41.6164 69.3239 41.8425 68.7779C42.0687 68.232 42.4002 67.7359 42.818 67.318C43.2359 66.9002 43.732 66.5687 44.2779 66.3425C44.8239 66.1164 45.4091 66 46 66C47.1935 66 48.3381 66.4741 49.182 67.318C50.0259 68.1619 50.5 69.3065 50.5 70.5C50.5 71.6935 50.0259 72.8381 49.182 73.682C48.3381 74.5259 47.1935 75 46 75ZM56.5 79C55.4391 79 54.4217 78.5786 53.6716 77.8284C52.9214 77.0783 52.5 76.0609 52.5 75C52.5 73.9391 52.9214 72.9217 53.6716 72.1716C54.4217 71.4214 55.4391 71 56.5 71C57.5609 71 58.5783 71.4214 59.3284 72.1716C60.0786 72.9217 60.5 73.9391 60.5 75C60.5 76.0609 60.0786 77.0783 59.3284 77.8284C58.5783 78.5786 57.5609 79 56.5 79ZM56.5 80C57.6935 80 58.8381 80.4741 59.682 81.318C60.5259 82.1619 61 83.3065 61 84.5V85H52V84.5C52 83.3065 52.4741 82.1619 53.318 81.318C54.1619 80.4741 55.3065 80 56.5 80ZM46 76C46.6566 76 47.3068 76.1293 47.9134 76.3806C48.52 76.6319 49.0712 77.0002 49.5355 77.4645C49.9998 77.9288 50.3681 78.48 50.6194 79.0866C50.8707 79.6932 51 80.3434 51 81V85H41V81C41 79.6739 41.5268 78.4021 42.4645 77.4645C43.4021 76.5268 44.6739 76 46 76Z" fill="#2CFBCD"/>
<rect x="57.5" y="56.5" width="39" height="38" rx="19" fill="#0F0F0F"/>
<rect x="57.5" y="56.5" width="39" height="38" rx="19" stroke="#343434"/>
<path d="M72 75C71.4091 75 70.8239 74.8836 70.2779 74.6575C69.732 74.4313 69.2359 74.0998 68.818 73.682C68.4002 73.2641 68.0687 72.768 67.8425 72.2221C67.6164 71.6761 67.5 71.0909 67.5 70.5C67.5 69.9091 67.6164 69.3239 67.8425 68.7779C68.0687 68.232 68.4002 67.7359 68.818 67.318C69.2359 66.9002 69.732 66.5687 70.2779 66.3425C70.8239 66.1164 71.4091 66 72 66C73.1935 66 74.3381 66.4741 75.182 67.318C76.0259 68.1619 76.5 69.3065 76.5 70.5C76.5 71.6935 76.0259 72.8381 75.182 73.682C74.3381 74.5259 73.1935 75 72 75ZM82.5 79C81.4391 79 80.4217 78.5786 79.6716 77.8284C78.9214 77.0783 78.5 76.0609 78.5 75C78.5 73.9391 78.9214 72.9217 79.6716 72.1716C80.4217 71.4214 81.4391 71 82.5 71C83.5609 71 84.5783 71.4214 85.3284 72.1716C86.0786 72.9217 86.5 73.9391 86.5 75C86.5 76.0609 86.0786 77.0783 85.3284 77.8284C84.5783 78.5786 83.5609 79 82.5 79ZM82.5 80C83.6935 80 84.8381 80.4741 85.682 81.318C86.5259 82.1619 87 83.3065 87 84.5V85H78V84.5C78 83.3065 78.4741 82.1619 79.318 81.318C80.1619 80.4741 81.3065 80 82.5 80ZM72 76C72.6566 76 73.3068 76.1293 73.9134 76.3806C74.52 76.6319 75.0712 77.0002 75.5355 77.4645C75.9998 77.9288 76.3681 78.48 76.6194 79.0866C76.8707 79.6932 77 80.3434 77 81V85H67V81C67 79.6739 67.5268 78.4021 68.4645 77.4645C69.4021 76.5268 70.6739 76 72 76Z" fill="#2CFBCD"/>
<rect x="82.5" y="56.5" width="39" height="38" rx="19" fill="#0F0F0F"/>
<rect x="82.5" y="56.5" width="39" height="38" rx="19" stroke="#343434"/>
<path d="M97 75C96.4091 75 95.8239 74.8836 95.2779 74.6575C94.732 74.4313 94.2359 74.0998 93.818 73.682C93.4002 73.2641 93.0687 72.768 92.8425 72.2221C92.6164 71.6761 92.5 71.0909 92.5 70.5C92.5 69.9091 92.6164 69.3239 92.8425 68.7779C93.0687 68.232 93.4002 67.7359 93.818 67.318C94.2359 66.9002 94.732 66.5687 95.2779 66.3425C95.8239 66.1164 96.4091 66 97 66C98.1935 66 99.3381 66.4741 100.182 67.318C101.026 68.1619 101.5 69.3065 101.5 70.5C101.5 71.6935 101.026 72.8381 100.182 73.682C99.3381 74.5259 98.1935 75 97 75ZM107.5 79C106.439 79 105.422 78.5786 104.672 77.8284C103.921 77.0783 103.5 76.0609 103.5 75C103.5 73.9391 103.921 72.9217 104.672 72.1716C105.422 71.4214 106.439 71 107.5 71C108.561 71 109.578 71.4214 110.328 72.1716C111.079 72.9217 111.5 73.9391 111.5 75C111.5 76.0609 111.079 77.0783 110.328 77.8284C109.578 78.5786 108.561 79 107.5 79ZM107.5 80C108.693 80 109.838 80.4741 110.682 81.318C111.526 82.1619 112 83.3065 112 84.5V85H103V84.5C103 83.3065 103.474 82.1619 104.318 81.318C105.162 80.4741 106.307 80 107.5 80ZM97 76C97.6566 76 98.3068 76.1293 98.9134 76.3806C99.52 76.6319 100.071 77.0002 100.536 77.4645C101 77.9288 101.368 78.48 101.619 79.0866C101.871 79.6932 102 80.3434 102 81V85H92V81C92 79.6739 92.5268 78.4021 93.4645 77.4645C94.4021 76.5268 95.6739 76 97 76Z" fill="#2CFBCD"/>
</svg>
