<svg width="152" height="147" viewBox="0 0 152 147" fill="none" xmlns="http://www.w3.org/2000/svg">
<rect x="0.5" y="0.5" width="151" height="146" rx="11.5" stroke="#343434"/>
<path d="M33.9542 11.6176L34.7048 14.3177L36.8324 16.1419L34.1323 16.8925L32.3082 19.0202L31.5575 16.32L29.4299 14.4959L32.13 13.7452L33.9542 11.6176ZM24.4904 12.7146L26.0082 18.1742L30.3102 21.8626L24.8506 23.3804L21.1622 27.6824L19.6444 22.2228L15.3424 18.5344L20.802 17.0166L24.4904 12.7146ZM33.2742 26.9609L32.3257 23.5486L30.0204 26.2374L26.6081 27.1859L29.2969 29.4912L30.2455 32.9035L32.5507 30.2147L35.963 29.266L33.2742 26.9609Z" fill="#2CFBCD"/>
<circle cx="123" cy="24" r="9.5" stroke="#2CFBCD"/>
<path d="M61.7139 112.879L62.1094 113.22L62.4326 112.811L100.907 64.1895L151.5 101.751V135C151.5 141.336 146.184 146.5 139.592 146.5H12.4082C5.81561 146.5 0.5 141.336 0.5 135V60.0908L61.7139 112.879Z" fill="#181818" stroke="#343434"/>
</svg>
