<svg width="82" height="60" viewBox="0 0 82 60" fill="none" xmlns="http://www.w3.org/2000/svg">
<path d="M81.1396 5.03632C80.271 4.61304 79.8972 5.41967 79.3894 5.82914C79.2155 5.96124 79.0683 6.13284 78.9218 6.29128C77.6522 7.63947 76.1689 8.52511 74.2311 8.41934C71.3985 8.26091 68.9793 9.14632 66.8414 11.3005C66.387 8.64404 64.8771 7.05732 62.5788 6.04024C61.3761 5.51162 60.1602 4.98258 59.3181 3.83274C58.7302 3.01359 58.5698 2.10141 58.2758 1.20261C58.0889 0.661045 57.9014 0.105663 57.2733 0.0128473C56.5919 -0.0929192 56.3242 0.475198 56.0574 0.951579C54.9882 2.89466 54.574 5.03568 54.6144 7.20303C54.7082 12.0806 56.7792 15.9659 60.8953 18.7288C61.3629 19.0461 61.4829 19.3631 61.3364 19.8257C61.0557 20.7776 60.7216 21.7025 60.4276 22.6544C60.2405 23.2625 59.9594 23.3946 59.3049 23.1304C57.0467 22.1923 55.0953 20.8039 53.3713 19.1257C50.4447 16.3102 47.7991 13.2041 44.4982 10.7719C43.7343 10.2102 42.9498 9.67674 42.1463 9.17266C38.7788 5.92131 42.5874 3.25103 43.4692 2.93416C44.3912 2.60348 43.7901 1.46703 40.8096 1.4802C37.8296 1.49336 35.1034 2.48454 31.6293 3.80641C31.1213 4.00499 30.5871 4.15026 30.0389 4.26876C26.8852 3.67388 23.6113 3.54178 20.1902 3.92491C13.7489 4.6383 8.60451 7.66537 4.82279 12.8335C0.27953 19.0467 -0.789857 26.1044 0.519849 33.4666C1.8962 41.2249 5.87829 47.6488 11.9987 52.6716C18.3462 57.8786 25.6561 60.4299 33.9943 59.9408C39.0588 59.6502 44.6984 58.9764 51.0591 53.6229C52.6628 54.4157 54.3463 54.7332 57.1394 54.9711C59.291 55.1696 61.3622 54.8653 62.9659 54.5353C65.4783 54.0066 65.3046 51.6934 64.3956 51.2707C57.033 47.861 58.6492 49.2487 57.1795 48.1252C60.4355 44.2951 65.1289 40.3348 67.7452 29.6067C68.3725 27.0343 68.7654 24.1602 68.7654 21.4657C68.7654 20.9261 68.8855 20.6598 69.5539 20.5935C71.3979 20.3817 73.1884 19.8801 74.8322 18.9809C79.6028 16.3902 81.5273 12.1343 81.9817 7.0325C82.0483 6.25285 81.9684 5.44579 81.1396 5.03632ZM39.5672 50.9526C32.431 45.3754 28.9702 43.5377 27.5404 43.6171C26.2042 43.6966 26.4446 45.2166 26.7385 46.2078C27.0457 47.186 27.4471 47.8599 28.008 48.719C28.3955 49.2875 28.663 50.133 27.6207 50.768C25.3224 52.1818 21.3267 50.2921 21.1393 50.1993C16.489 47.4765 12.6003 43.8815 9.86059 38.9649C7.21491 34.2326 5.67791 29.1578 5.42435 23.7384C5.35749 22.4302 5.74521 21.9669 7.05448 21.7295C8.77818 21.412 10.5555 21.3457 12.2794 21.5968C19.5621 22.6544 25.7625 25.8926 30.9609 31.0208C33.9277 33.9414 36.1726 37.4313 38.4848 40.8411C40.9436 44.4626 43.5895 47.9125 46.957 50.741C48.1464 51.7322 49.0949 52.4858 50.0038 53.0411C47.2642 53.3448 42.6938 53.4111 39.5672 50.9526ZM43.0187 28.8239C43.1318 28.3682 43.5443 28.0343 44.0438 28.0343C44.167 28.0346 44.2892 28.0569 44.4044 28.1001C44.5516 28.1532 44.6851 28.2326 44.7921 28.3511C44.9791 28.5366 45.0861 28.8008 45.0861 29.0781C45.0861 29.6598 44.6185 30.1222 44.0306 30.1222C43.7824 30.1245 43.5418 30.0377 43.3529 29.8777C43.1639 29.7178 43.0393 29.4954 43.002 29.2515C42.9789 29.1092 42.9846 28.9639 43.0187 28.8239ZM53.2671 34.6335C52.7014 34.8484 52.1383 35.0172 51.594 35.0392C50.5783 35.0919 49.4694 34.6822 48.8682 34.18C47.933 33.4003 47.2648 32.9645 46.9841 31.6025C46.8638 31.0208 46.9305 30.1222 47.0375 29.6067C47.2781 28.4964 47.0106 27.7826 46.2226 27.135C45.5813 26.6064 44.7657 26.4612 43.8706 26.4612C43.5365 26.4612 43.2293 26.3159 43.002 26.197C42.6278 26.0122 42.3206 25.5494 42.6145 24.9809C42.7083 24.7961 43.1627 24.3465 43.2697 24.2675C44.4854 23.58 45.8889 23.8047 47.1847 24.3201C48.3874 24.8093 49.2963 25.7078 50.6058 26.9766C51.942 28.5096 52.1826 28.9329 52.9445 30.0827C53.5461 30.9813 54.0938 31.9068 54.4681 32.9639C54.6585 33.5166 54.4835 33.987 53.9599 34.3187C53.7469 34.4537 53.502 34.5441 53.2671 34.6335Z" fill="#4D6BFE"/>
</svg>
