<svg width="300" height="177" viewBox="0 0 300 177" fill="none" xmlns="http://www.w3.org/2000/svg">
<g filter="url(#filter0_d_82_23)">
<rect x="15.5" y="10" width="135" height="39" rx="19.5" fill="#0F0F0F" shape-rendering="crispEdges"/>
<rect x="15.75" y="10.25" width="134.5" height="38.5" rx="19.25" stroke="#0DA382" stroke-width="0.5" shape-rendering="crispEdges"/>
<path d="M32.48 35V24.92H38.78V25.907H33.509V29.393H37.94V30.38H33.509V34.013H38.78V35H32.48ZM49.4804 35L49.4874 30.037C49.4874 29.4537 49.324 28.9963 48.9974 28.665C48.6754 28.329 48.2647 28.161 47.7654 28.161C47.4807 28.161 47.203 28.2263 46.9324 28.357C46.6617 28.4877 46.4377 28.6977 46.2604 28.987C46.0877 29.2763 46.0014 29.6543 46.0014 30.121L45.3924 29.946C45.3784 29.4047 45.4834 28.931 45.7074 28.525C45.936 28.119 46.2487 27.804 46.6454 27.58C47.0467 27.3513 47.4994 27.237 48.0034 27.237C48.764 27.237 49.373 27.4727 49.8304 27.944C50.2877 28.4107 50.5164 29.043 50.5164 29.841L50.5094 35H49.4804ZM40.4574 35V27.44H41.3814V29.302H41.4934V35H40.4574ZM44.9794 35L44.9864 30.107C44.9864 29.505 44.8254 29.0313 44.5034 28.686C44.186 28.336 43.766 28.161 43.2434 28.161C42.7207 28.161 42.2984 28.3407 41.9764 28.7C41.6544 29.0547 41.4934 29.5283 41.4934 30.121L40.8774 29.785C40.8774 29.2997 40.9917 28.8657 41.2204 28.483C41.449 28.0957 41.7617 27.7923 42.1584 27.573C42.555 27.349 43.0054 27.237 43.5094 27.237C43.99 27.237 44.417 27.3397 44.7904 27.545C45.1684 27.7503 45.4647 28.049 45.6794 28.441C45.894 28.833 46.0014 29.309 46.0014 29.869L45.9944 35H44.9794ZM54.4946 35.21C53.9252 35.21 53.4469 35.1073 53.0596 34.902C52.6769 34.6967 52.3899 34.4237 52.1986 34.083C52.0072 33.7423 51.9116 33.3713 51.9116 32.97C51.9116 32.5593 51.9932 32.2093 52.1566 31.92C52.3246 31.626 52.5509 31.3857 52.8356 31.199C53.1249 31.0123 53.4586 30.87 53.8366 30.772C54.2192 30.6787 54.6416 30.597 55.1036 30.527C55.5702 30.4523 56.0252 30.3893 56.4686 30.338C56.9166 30.282 57.3086 30.2283 57.6446 30.177L57.2806 30.401C57.2946 29.6543 57.1499 29.1013 56.8466 28.742C56.5432 28.3827 56.0159 28.203 55.2646 28.203C54.7466 28.203 54.3079 28.3197 53.9486 28.553C53.5939 28.7863 53.3442 29.155 53.1996 29.659L52.1986 29.365C52.3712 28.6883 52.7189 28.1633 53.2416 27.79C53.7642 27.4167 54.4432 27.23 55.2786 27.23C55.9692 27.23 56.5549 27.3607 57.0356 27.622C57.5209 27.8787 57.8639 28.252 58.0646 28.742C58.1579 28.9613 58.2186 29.2063 58.2466 29.477C58.2746 29.7477 58.2886 30.023 58.2886 30.303V35H57.3716V33.103L57.6376 33.215C57.3809 33.8637 56.9819 34.3583 56.4406 34.699C55.8992 35.0397 55.2506 35.21 54.4946 35.21ZM54.6136 34.321C55.0942 34.321 55.5142 34.2347 55.8736 34.062C56.2329 33.8893 56.5222 33.6537 56.7416 33.355C56.9609 33.0517 57.1032 32.711 57.1686 32.333C57.2246 32.0903 57.2549 31.8243 57.2596 31.535C57.2642 31.241 57.2666 31.0217 57.2666 30.877L57.6586 31.08C57.3086 31.1267 56.9282 31.1733 56.5176 31.22C56.1116 31.2667 55.7102 31.3203 55.3136 31.381C54.9216 31.4417 54.5669 31.514 54.2496 31.598C54.0349 31.6587 53.8272 31.745 53.6266 31.857C53.4259 31.9643 53.2602 32.109 53.1296 32.291C53.0036 32.473 52.9406 32.6993 52.9406 32.97C52.9406 33.1893 52.9942 33.4017 53.1016 33.607C53.2136 33.8123 53.3909 33.9827 53.6336 34.118C53.8809 34.2533 54.2076 34.321 54.6136 34.321ZM60.2509 26.005V24.85H61.2799V26.005H60.2509ZM60.2509 35V27.44H61.2799V35H60.2509ZM63.5184 35V24.71H64.5474V35H63.5184ZM69.4488 35V24.92H70.3938L74.3558 33.397L78.2968 24.92H79.2558V34.993H78.2758V27.216L74.6848 35H74.0198L70.4358 27.216V35H69.4488ZM83.3832 35.21C82.8139 35.21 82.3356 35.1073 81.9482 34.902C81.5656 34.6967 81.2786 34.4237 81.0872 34.083C80.8959 33.7423 80.8002 33.3713 80.8002 32.97C80.8002 32.5593 80.8819 32.2093 81.0452 31.92C81.2132 31.626 81.4396 31.3857 81.7242 31.199C82.0136 31.0123 82.3472 30.87 82.7252 30.772C83.1079 30.6787 83.5302 30.597 83.9922 30.527C84.4589 30.4523 84.9139 30.3893 85.3572 30.338C85.8052 30.282 86.1972 30.2283 86.5332 30.177L86.1692 30.401C86.1832 29.6543 86.0386 29.1013 85.7352 28.742C85.4319 28.3827 84.9046 28.203 84.1532 28.203C83.6352 28.203 83.1966 28.3197 82.8372 28.553C82.4826 28.7863 82.2329 29.155 82.0882 29.659L81.0872 29.365C81.2599 28.6883 81.6076 28.1633 82.1302 27.79C82.6529 27.4167 83.3319 27.23 84.1672 27.23C84.8579 27.23 85.4436 27.3607 85.9242 27.622C86.4096 27.8787 86.7526 28.252 86.9532 28.742C87.0466 28.9613 87.1072 29.2063 87.1352 29.477C87.1632 29.7477 87.1772 30.023 87.1772 30.303V35H86.2602V33.103L86.5262 33.215C86.2696 33.8637 85.8706 34.3583 85.3292 34.699C84.7879 35.0397 84.1392 35.21 83.3832 35.21ZM83.5022 34.321C83.9829 34.321 84.4029 34.2347 84.7622 34.062C85.1216 33.8893 85.4109 33.6537 85.6302 33.355C85.8496 33.0517 85.9919 32.711 86.0572 32.333C86.1132 32.0903 86.1436 31.8243 86.1482 31.535C86.1529 31.241 86.1552 31.0217 86.1552 30.877L86.5472 31.08C86.1972 31.1267 85.8169 31.1733 85.4062 31.22C85.0002 31.2667 84.5989 31.3203 84.2022 31.381C83.8102 31.4417 83.4556 31.514 83.1382 31.598C82.9236 31.6587 82.7159 31.745 82.5152 31.857C82.3146 31.9643 82.1489 32.109 82.0182 32.291C81.8922 32.473 81.8292 32.6993 81.8292 32.97C81.8292 33.1893 81.8829 33.4017 81.9902 33.607C82.1022 33.8123 82.2796 33.9827 82.5222 34.118C82.7696 34.2533 83.0962 34.321 83.5022 34.321ZM88.9995 35V27.44H89.9235V29.26L89.7415 29.022C89.8255 28.798 89.9352 28.5927 90.0705 28.406C90.2059 28.2147 90.3529 28.0583 90.5115 27.937C90.7075 27.7643 90.9362 27.6337 91.1975 27.545C91.4589 27.4517 91.7225 27.398 91.9885 27.384C92.2545 27.3653 92.4972 27.384 92.7165 27.44V28.406C92.4412 28.336 92.1402 28.3197 91.8135 28.357C91.4869 28.3943 91.1859 28.525 90.9105 28.749C90.6585 28.945 90.4695 29.1807 90.3435 29.456C90.2175 29.7267 90.1335 30.016 90.0915 30.324C90.0495 30.6273 90.0285 30.9283 90.0285 31.227V35H88.9995ZM94.0375 35L94.0445 24.92H95.0805V31.08L98.4545 27.44H99.8265L96.2845 31.22L100.288 35H98.7905L95.0805 31.36V35H94.0375ZM104.052 35.21C103.315 35.21 102.675 35.0467 102.134 34.72C101.597 34.3933 101.18 33.9337 100.881 33.341C100.582 32.7483 100.433 32.053 100.433 31.255C100.433 30.429 100.58 29.715 100.874 29.113C101.168 28.511 101.581 28.0467 102.113 27.72C102.65 27.3933 103.282 27.23 104.01 27.23C104.757 27.23 105.394 27.4027 105.921 27.748C106.448 28.0887 106.847 28.5787 107.118 29.218C107.389 29.8573 107.512 30.6203 107.489 31.507H106.439V31.143C106.42 30.163 106.208 29.4233 105.802 28.924C105.401 28.4247 104.813 28.175 104.038 28.175C103.226 28.175 102.603 28.4387 102.169 28.966C101.74 29.4933 101.525 30.2447 101.525 31.22C101.525 32.172 101.74 32.9117 102.169 33.439C102.603 33.9617 103.217 34.223 104.01 34.223C104.551 34.223 105.023 34.0993 105.424 33.852C105.83 33.6 106.15 33.2383 106.383 32.767L107.342 33.138C107.043 33.796 106.602 34.307 106.019 34.671C105.44 35.0303 104.785 35.21 104.052 35.21ZM101.161 31.507V30.646H106.936V31.507H101.161ZM113.159 35C112.734 35.0887 112.314 35.1237 111.899 35.105C111.488 35.0863 111.119 34.9977 110.793 34.839C110.471 34.6803 110.226 34.433 110.058 34.097C109.922 33.817 109.848 33.5347 109.834 33.25C109.824 32.9607 109.82 32.6317 109.82 32.263V25.34H110.842V32.221C110.842 32.5383 110.844 32.8043 110.849 33.019C110.858 33.229 110.907 33.4157 110.996 33.579C111.164 33.8917 111.43 34.0783 111.794 34.139C112.162 34.1997 112.617 34.1857 113.159 34.097V35ZM108.203 28.322V27.44H113.159V28.322H108.203ZM114.788 26.005V24.85H115.817V26.005H114.788ZM114.788 35V27.44H115.817V35H114.788ZM123.376 35V31.143C123.376 30.723 123.336 30.338 123.257 29.988C123.177 29.6333 123.049 29.3253 122.872 29.064C122.699 28.798 122.473 28.5927 122.193 28.448C121.917 28.3033 121.581 28.231 121.185 28.231C120.821 28.231 120.499 28.294 120.219 28.42C119.943 28.546 119.71 28.728 119.519 28.966C119.332 29.1993 119.19 29.484 119.092 29.82C118.994 30.156 118.945 30.5387 118.945 30.968L118.217 30.807C118.217 30.0323 118.352 29.3813 118.623 28.854C118.893 28.3267 119.267 27.9277 119.743 27.657C120.219 27.3863 120.765 27.251 121.381 27.251C121.833 27.251 122.228 27.321 122.564 27.461C122.904 27.601 123.191 27.79 123.425 28.028C123.663 28.266 123.854 28.539 123.999 28.847C124.143 29.1503 124.248 29.4747 124.314 29.82C124.379 30.1607 124.412 30.5013 124.412 30.842V35H123.376ZM117.909 35V27.44H118.84V29.302H118.945V35H117.909ZM129.231 38.57C128.844 38.57 128.461 38.5117 128.083 38.395C127.71 38.283 127.364 38.1033 127.047 37.856C126.73 37.6133 126.464 37.296 126.249 36.904L127.18 36.386C127.39 36.806 127.684 37.107 128.062 37.289C128.445 37.4757 128.834 37.569 129.231 37.569C129.777 37.569 130.218 37.4663 130.554 37.261C130.895 37.0603 131.142 36.7617 131.296 36.365C131.45 35.9683 131.525 35.4737 131.52 34.881V32.865H131.639V27.44H132.556V34.895C132.556 35.1097 132.549 35.315 132.535 35.511C132.526 35.7117 132.505 35.9077 132.472 36.099C132.383 36.6637 132.199 37.128 131.919 37.492C131.644 37.856 131.28 38.1267 130.827 38.304C130.379 38.4813 129.847 38.57 129.231 38.57ZM129.161 35.21C128.456 35.21 127.854 35.035 127.355 34.685C126.856 34.3303 126.473 33.852 126.207 33.25C125.941 32.648 125.808 31.969 125.808 31.213C125.808 30.4617 125.939 29.785 126.2 29.183C126.466 28.581 126.846 28.105 127.341 27.755C127.836 27.405 128.428 27.23 129.119 27.23C129.828 27.23 130.426 27.4027 130.911 27.748C131.396 28.0933 131.763 28.567 132.01 29.169C132.262 29.7663 132.388 30.4477 132.388 31.213C132.388 31.9643 132.264 32.6433 132.017 33.25C131.77 33.852 131.406 34.3303 130.925 34.685C130.444 35.035 129.856 35.21 129.161 35.21ZM129.266 34.251C129.803 34.251 130.246 34.1203 130.596 33.859C130.946 33.5977 131.207 33.2383 131.38 32.781C131.553 32.319 131.639 31.7963 131.639 31.213C131.639 30.6203 131.553 30.0977 131.38 29.645C131.207 29.1877 130.946 28.8307 130.596 28.574C130.251 28.3173 129.814 28.189 129.287 28.189C128.746 28.189 128.298 28.322 127.943 28.588C127.588 28.854 127.325 29.2157 127.152 29.673C126.984 30.1303 126.9 30.6437 126.9 31.213C126.9 31.787 126.986 32.305 127.159 32.767C127.336 33.2243 127.6 33.586 127.95 33.852C128.3 34.118 128.739 34.251 129.266 34.251Z" fill="white"/>
</g>
<g filter="url(#filter1_d_82_23)">
<rect x="177.5" y="10" width="56" height="39" rx="19.5" fill="#0F0F0F" shape-rendering="crispEdges"/>
<rect x="177.75" y="10.25" width="55.5" height="38.5" rx="19.25" stroke="#0DA382" stroke-width="0.5" shape-rendering="crispEdges"/>
<path d="M197.042 35L193.57 24.92H194.641L197.714 33.831L200.808 24.92H201.879L198.407 35H197.042ZM206.156 35.21C205.451 35.21 204.816 35.0933 204.252 34.86C203.692 34.622 203.227 34.286 202.859 33.852C202.495 33.418 202.257 32.9023 202.145 32.305L203.195 32.13C203.363 32.7833 203.717 33.2967 204.259 33.67C204.8 34.0387 205.446 34.223 206.198 34.223C206.692 34.223 207.136 34.146 207.528 33.992C207.92 33.8333 208.228 33.6093 208.452 33.32C208.676 33.0307 208.788 32.6877 208.788 32.291C208.788 32.0297 208.741 31.808 208.648 31.626C208.554 31.4393 208.431 31.2853 208.277 31.164C208.123 31.0427 207.955 30.9423 207.773 30.863C207.591 30.779 207.413 30.7113 207.241 30.66L204.686 29.897C204.378 29.8083 204.093 29.6963 203.832 29.561C203.57 29.421 203.342 29.2553 203.146 29.064C202.954 28.868 202.805 28.6393 202.698 28.378C202.59 28.1167 202.537 27.818 202.537 27.482C202.537 26.9127 202.686 26.4203 202.985 26.005C203.283 25.5897 203.692 25.27 204.21 25.046C204.728 24.822 205.318 24.7123 205.981 24.717C206.653 24.717 207.252 24.836 207.78 25.074C208.312 25.312 208.75 25.6527 209.096 26.096C209.441 26.5347 209.67 27.055 209.782 27.657L208.704 27.853C208.634 27.4143 208.473 27.034 208.221 26.712C207.969 26.39 207.647 26.1427 207.255 25.97C206.867 25.7927 206.44 25.7017 205.974 25.697C205.521 25.697 205.117 25.774 204.763 25.928C204.413 26.0773 204.135 26.2827 203.93 26.544C203.724 26.8053 203.622 27.104 203.622 27.44C203.622 27.7807 203.715 28.0537 203.902 28.259C204.093 28.4643 204.326 28.6253 204.602 28.742C204.882 28.8587 205.152 28.9543 205.414 29.029L207.388 29.61C207.593 29.666 207.833 29.7477 208.109 29.855C208.389 29.9577 208.659 30.107 208.921 30.303C209.187 30.4943 209.406 30.7463 209.579 31.059C209.751 31.3717 209.838 31.7683 209.838 32.249C209.838 32.7157 209.744 33.1333 209.558 33.502C209.376 33.8707 209.117 34.181 208.781 34.433C208.449 34.685 208.06 34.8763 207.612 35.007C207.168 35.1423 206.683 35.21 206.156 35.21ZM211.423 35V24.92H212.452V34.013H217.24V35H211.423Z" fill="white"/>
</g>
<g filter="url(#filter2_d_82_23)">
<rect x="15.5" y="71" width="145" height="39" rx="19.5" fill="#0F0F0F" shape-rendering="crispEdges"/>
<rect x="15.75" y="71.25" width="144.5" height="38.5" rx="19.25" stroke="#0DA382" stroke-width="0.5" shape-rendering="crispEdges"/>
<path d="M36.477 84.73H35.595L36.428 82.56H37.31L36.477 84.73ZM31.78 96L35.252 85.92H36.617L40.089 96H39.018L35.721 86.494H36.127L32.851 96H31.78ZM33.327 93.557V92.591H38.535V93.557H33.327ZM41.353 96V88.44H42.277V90.26L42.095 90.022C42.179 89.798 42.2887 89.5927 42.424 89.406C42.5594 89.2147 42.7064 89.0583 42.865 88.937C43.061 88.7643 43.2897 88.6337 43.551 88.545C43.8124 88.4517 44.076 88.398 44.342 88.384C44.608 88.3653 44.8507 88.384 45.07 88.44V89.406C44.7947 89.336 44.4937 89.3197 44.167 89.357C43.8404 89.3943 43.5394 89.525 43.264 89.749C43.012 89.945 42.823 90.1807 42.697 90.456C42.571 90.7267 42.487 91.016 42.445 91.324C42.403 91.6273 42.382 91.9283 42.382 92.227V96H41.353ZM49.4603 96.21C48.7229 96.21 48.0836 96.0467 47.5423 95.72C47.0056 95.3933 46.5879 94.9337 46.2893 94.341C45.9906 93.7483 45.8413 93.053 45.8413 92.255C45.8413 91.429 45.9883 90.715 46.2823 90.113C46.5763 89.511 46.9893 89.0467 47.5213 88.72C48.0579 88.3933 48.6903 88.23 49.4183 88.23C50.1649 88.23 50.8019 88.4027 51.3293 88.748C51.8566 89.0887 52.2556 89.5787 52.5263 90.218C52.7969 90.8573 52.9206 91.6203 52.8973 92.507H51.8473V92.143C51.8286 91.163 51.6163 90.4233 51.2103 89.924C50.8089 89.4247 50.2209 89.175 49.4463 89.175C48.6343 89.175 48.0113 89.4387 47.5773 89.966C47.1479 90.4933 46.9333 91.2447 46.9333 92.22C46.9333 93.172 47.1479 93.9117 47.5773 94.439C48.0113 94.9617 48.6249 95.223 49.4183 95.223C49.9596 95.223 50.4309 95.0993 50.8323 94.852C51.2383 94.6 51.5579 94.2383 51.7913 93.767L52.7503 94.138C52.4516 94.796 52.0106 95.307 51.4273 95.671C50.8486 96.0303 50.1929 96.21 49.4603 96.21ZM46.5693 92.507V91.646H52.3443V92.507H46.5693ZM56.477 96.21C55.9077 96.21 55.4293 96.1073 55.042 95.902C54.6593 95.6967 54.3723 95.4237 54.181 95.083C53.9897 94.7423 53.894 94.3713 53.894 93.97C53.894 93.5593 53.9757 93.2093 54.139 92.92C54.307 92.626 54.5333 92.3857 54.818 92.199C55.1073 92.0123 55.441 91.87 55.819 91.772C56.2017 91.6787 56.624 91.597 57.086 91.527C57.5527 91.4523 58.0077 91.3893 58.451 91.338C58.899 91.282 59.291 91.2283 59.627 91.177L59.263 91.401C59.277 90.6543 59.1323 90.1013 58.829 89.742C58.5257 89.3827 57.9983 89.203 57.247 89.203C56.729 89.203 56.2903 89.3197 55.931 89.553C55.5763 89.7863 55.3267 90.155 55.182 90.659L54.181 90.365C54.3537 89.6883 54.7013 89.1633 55.224 88.79C55.7467 88.4167 56.4257 88.23 57.261 88.23C57.9517 88.23 58.5373 88.3607 59.018 88.622C59.5033 88.8787 59.8463 89.252 60.047 89.742C60.1403 89.9613 60.201 90.2063 60.229 90.477C60.257 90.7477 60.271 91.023 60.271 91.303V96H59.354V94.103L59.62 94.215C59.3633 94.8637 58.9643 95.3583 58.423 95.699C57.8817 96.0397 57.233 96.21 56.477 96.21ZM56.596 95.321C57.0767 95.321 57.4967 95.2347 57.856 95.062C58.2153 94.8893 58.5047 94.6537 58.724 94.355C58.9433 94.0517 59.0857 93.711 59.151 93.333C59.207 93.0903 59.2373 92.8243 59.242 92.535C59.2467 92.241 59.249 92.0217 59.249 91.877L59.641 92.08C59.291 92.1267 58.9107 92.1733 58.5 92.22C58.094 92.2667 57.6927 92.3203 57.296 92.381C56.904 92.4417 56.5493 92.514 56.232 92.598C56.0173 92.6587 55.8097 92.745 55.609 92.857C55.4083 92.9643 55.2427 93.109 55.112 93.291C54.986 93.473 54.923 93.6993 54.923 93.97C54.923 94.1893 54.9767 94.4017 55.084 94.607C55.196 94.8123 55.3733 94.9827 55.616 95.118C55.8633 95.2533 56.19 95.321 56.596 95.321ZM67.829 96.21C67.1243 96.21 66.5223 96.035 66.023 95.685C65.5237 95.3303 65.141 94.852 64.875 94.25C64.609 93.648 64.476 92.969 64.476 92.213C64.476 91.4617 64.6067 90.785 64.868 90.183C65.134 89.581 65.5143 89.105 66.009 88.755C66.5037 88.405 67.0963 88.23 67.787 88.23C68.4963 88.23 69.0937 88.4027 69.579 88.748C70.0643 89.0933 70.4307 89.567 70.678 90.169C70.93 90.7663 71.056 91.4477 71.056 92.213C71.056 92.9643 70.9323 93.6433 70.685 94.25C70.4377 94.852 70.0737 95.3303 69.593 95.685C69.1123 96.035 68.5243 96.21 67.829 96.21ZM67.934 95.251C68.4707 95.251 68.914 95.1203 69.264 94.859C69.614 94.5977 69.8753 94.2383 70.048 93.781C70.2207 93.319 70.307 92.7963 70.307 92.213C70.307 91.6203 70.2207 91.0977 70.048 90.645C69.8753 90.1877 69.614 89.8307 69.264 89.574C68.9187 89.3173 68.4823 89.189 67.955 89.189C67.4137 89.189 66.9657 89.322 66.611 89.588C66.2563 89.854 65.9927 90.2157 65.82 90.673C65.652 91.1303 65.568 91.6437 65.568 92.213C65.568 92.787 65.6543 93.305 65.827 93.767C66.0043 94.2243 66.268 94.586 66.618 94.852C66.968 95.118 67.4067 95.251 67.934 95.251ZM70.307 96V90.309H70.195V85.92H71.231V96H70.307ZM76.3938 96.21C75.6565 96.21 75.0172 96.0467 74.4758 95.72C73.9392 95.3933 73.5215 94.9337 73.2228 94.341C72.9242 93.7483 72.7748 93.053 72.7748 92.255C72.7748 91.429 72.9218 90.715 73.2158 90.113C73.5098 89.511 73.9228 89.0467 74.4548 88.72C74.9915 88.3933 75.6238 88.23 76.3518 88.23C77.0985 88.23 77.7355 88.4027 78.2628 88.748C78.7902 89.0887 79.1892 89.5787 79.4598 90.218C79.7305 90.8573 79.8542 91.6203 79.8308 92.507H78.7808V92.143C78.7622 91.163 78.5498 90.4233 78.1438 89.924C77.7425 89.4247 77.1545 89.175 76.3798 89.175C75.5678 89.175 74.9448 89.4387 74.5108 89.966C74.0815 90.4933 73.8668 91.2447 73.8668 92.22C73.8668 93.172 74.0815 93.9117 74.5108 94.439C74.9448 94.9617 75.5585 95.223 76.3518 95.223C76.8932 95.223 77.3645 95.0993 77.7658 94.852C78.1718 94.6 78.4915 94.2383 78.7248 93.767L79.6838 94.138C79.3852 94.796 78.9442 95.307 78.3608 95.671C77.7822 96.0303 77.1265 96.21 76.3938 96.21ZM73.5028 92.507V91.646H79.2778V92.507H73.5028ZM84.187 96V85.92H85.132L89.094 94.397L93.035 85.92H93.994V95.993H93.014V88.216L89.423 96H88.758L85.174 88.216V96H84.187ZM99.1575 96.21C98.4202 96.21 97.7808 96.0467 97.2395 95.72C96.7028 95.3933 96.2852 94.9337 95.9865 94.341C95.6878 93.7483 95.5385 93.053 95.5385 92.255C95.5385 91.429 95.6855 90.715 95.9795 90.113C96.2735 89.511 96.6865 89.0467 97.2185 88.72C97.7552 88.3933 98.3875 88.23 99.1155 88.23C99.8622 88.23 100.499 88.4027 101.027 88.748C101.554 89.0887 101.953 89.5787 102.224 90.218C102.494 90.8573 102.618 91.6203 102.595 92.507H101.545V92.143C101.526 91.163 101.314 90.4233 100.908 89.924C100.506 89.4247 99.9182 89.175 99.1435 89.175C98.3315 89.175 97.7085 89.4387 97.2745 89.966C96.8452 90.4933 96.6305 91.2447 96.6305 92.22C96.6305 93.172 96.8452 93.9117 97.2745 94.439C97.7085 94.9617 98.3222 95.223 99.1155 95.223C99.6568 95.223 100.128 95.0993 100.53 94.852C100.936 94.6 101.255 94.2383 101.489 93.767L102.448 94.138C102.149 94.796 101.708 95.307 101.125 95.671C100.546 96.0303 99.8902 96.21 99.1575 96.21ZM96.2665 92.507V91.646H102.042V92.507H96.2665ZM112.959 96L112.966 91.037C112.966 90.4537 112.803 89.9963 112.476 89.665C112.154 89.329 111.743 89.161 111.244 89.161C110.959 89.161 110.682 89.2263 110.411 89.357C110.14 89.4877 109.916 89.6977 109.739 89.987C109.566 90.2763 109.48 90.6543 109.48 91.121L108.871 90.946C108.857 90.4047 108.962 89.931 109.186 89.525C109.415 89.119 109.727 88.804 110.124 88.58C110.525 88.3513 110.978 88.237 111.482 88.237C112.243 88.237 112.852 88.4727 113.309 88.944C113.766 89.4107 113.995 90.043 113.995 90.841L113.988 96H112.959ZM103.936 96V88.44H104.86V90.302H104.972V96H103.936ZM108.458 96L108.465 91.107C108.465 90.505 108.304 90.0313 107.982 89.686C107.665 89.336 107.245 89.161 106.722 89.161C106.199 89.161 105.777 89.3407 105.455 89.7C105.133 90.0547 104.972 90.5283 104.972 91.121L104.356 90.785C104.356 90.2997 104.47 89.8657 104.699 89.483C104.928 89.0957 105.24 88.7923 105.637 88.573C106.034 88.349 106.484 88.237 106.988 88.237C107.469 88.237 107.896 88.3397 108.269 88.545C108.647 88.7503 108.943 89.049 109.158 89.441C109.373 89.833 109.48 90.309 109.48 90.869L109.473 96H108.458ZM119.205 96.21C118.51 96.21 117.922 96.035 117.441 95.685C116.96 95.3303 116.596 94.852 116.349 94.25C116.102 93.6433 115.978 92.9643 115.978 92.213C115.978 91.4477 116.102 90.7663 116.349 90.169C116.601 89.567 116.97 89.0933 117.455 88.748C117.94 88.4027 118.538 88.23 119.247 88.23C119.938 88.23 120.53 88.405 121.025 88.755C121.52 89.105 121.898 89.581 122.159 90.183C122.425 90.785 122.558 91.4617 122.558 92.213C122.558 92.969 122.425 93.648 122.159 94.25C121.893 94.852 121.51 95.3303 121.011 95.685C120.512 96.035 119.91 96.21 119.205 96.21ZM115.803 96V85.92H116.839V90.309H116.727V96H115.803ZM119.1 95.251C119.627 95.251 120.066 95.118 120.416 94.852C120.766 94.586 121.027 94.2243 121.2 93.767C121.377 93.305 121.466 92.787 121.466 92.213C121.466 91.6437 121.38 91.1303 121.207 90.673C121.034 90.2157 120.771 89.854 120.416 89.588C120.066 89.322 119.62 89.189 119.079 89.189C118.552 89.189 118.113 89.3173 117.763 89.574C117.418 89.8307 117.159 90.1877 116.986 90.645C116.813 91.0977 116.727 91.6203 116.727 92.213C116.727 92.7963 116.813 93.319 116.986 93.781C117.159 94.2383 117.42 94.5977 117.77 94.859C118.12 95.1203 118.563 95.251 119.1 95.251ZM124.095 96V88.44H125.019V90.26L124.837 90.022C124.921 89.798 125.031 89.5927 125.166 89.406C125.302 89.2147 125.449 89.0583 125.607 88.937C125.803 88.7643 126.032 88.6337 126.293 88.545C126.555 88.4517 126.818 88.398 127.084 88.384C127.35 88.3653 127.593 88.384 127.812 88.44V89.406C127.537 89.336 127.236 89.3197 126.909 89.357C126.583 89.3943 126.282 89.525 126.006 89.749C125.754 89.945 125.565 90.1807 125.439 90.456C125.313 90.7267 125.229 91.016 125.187 91.324C125.145 91.6273 125.124 91.9283 125.124 92.227V96H124.095ZM132.16 96.21C131.409 96.21 130.767 96.0397 130.235 95.699C129.703 95.3583 129.295 94.887 129.01 94.285C128.726 93.683 128.583 92.9923 128.583 92.213C128.583 91.4197 128.728 90.7243 129.017 90.127C129.307 89.5297 129.717 89.0653 130.249 88.734C130.786 88.398 131.423 88.23 132.16 88.23C132.916 88.23 133.56 88.4003 134.092 88.741C134.629 89.077 135.037 89.546 135.317 90.148C135.602 90.7453 135.744 91.4337 135.744 92.213C135.744 93.0063 135.602 93.704 135.317 94.306C135.033 94.9033 134.622 95.37 134.085 95.706C133.549 96.042 132.907 96.21 132.16 96.21ZM132.16 95.223C133 95.223 133.626 94.9453 134.036 94.39C134.447 93.83 134.652 93.1043 134.652 92.213C134.652 91.2983 134.445 90.5703 134.029 90.029C133.619 89.4877 132.996 89.217 132.16 89.217C131.596 89.217 131.129 89.3453 130.76 89.602C130.396 89.854 130.123 90.2063 129.941 90.659C129.764 91.107 129.675 91.625 129.675 92.213C129.675 93.123 129.885 93.8533 130.305 94.404C130.725 94.95 131.344 95.223 132.16 95.223ZM140.041 96.203C139.155 96.203 138.424 96.0117 137.85 95.629C137.281 95.2463 136.931 94.7143 136.8 94.033L137.85 93.858C137.962 94.2873 138.217 94.6303 138.613 94.887C139.015 95.139 139.509 95.265 140.097 95.265C140.671 95.265 141.124 95.146 141.455 94.908C141.787 94.6653 141.952 94.3363 141.952 93.921C141.952 93.6877 141.899 93.4987 141.791 93.354C141.689 93.2047 141.476 93.067 141.154 92.941C140.832 92.815 140.352 92.6657 139.712 92.493C139.026 92.3063 138.49 92.1197 138.102 91.933C137.715 91.7463 137.44 91.5317 137.276 91.289C137.113 91.0417 137.031 90.7407 137.031 90.386C137.031 89.9567 137.153 89.581 137.395 89.259C137.638 88.9323 137.974 88.6803 138.403 88.503C138.833 88.321 139.332 88.23 139.901 88.23C140.471 88.23 140.979 88.3233 141.427 88.51C141.88 88.692 142.244 88.9487 142.519 89.28C142.795 89.6113 142.958 89.9963 143.009 90.435L141.959 90.624C141.889 90.1807 141.668 89.8307 141.294 89.574C140.926 89.3127 140.457 89.1773 139.887 89.168C139.351 89.154 138.914 89.2567 138.578 89.476C138.242 89.6907 138.074 89.9777 138.074 90.337C138.074 90.5377 138.135 90.7103 138.256 90.855C138.378 90.995 138.597 91.128 138.914 91.254C139.236 91.38 139.694 91.5177 140.286 91.667C140.982 91.8443 141.528 92.031 141.924 92.227C142.321 92.423 142.603 92.654 142.771 92.92C142.939 93.186 143.023 93.515 143.023 93.907C143.023 94.621 142.757 95.1833 142.225 95.594C141.698 96 140.97 96.203 140.041 96.203Z" fill="white"/>
</g>
<g filter="url(#filter3_d_82_23)">
<rect x="184.5" y="71" width="100" height="39" rx="19.5" fill="#0F0F0F" shape-rendering="crispEdges"/>
<rect x="184.75" y="71.25" width="99.5" height="38.5" rx="19.25" stroke="#0DA382" stroke-width="0.5" shape-rendering="crispEdges"/>
<path d="M205.519 96.21C204.81 96.21 204.17 96.0863 203.601 95.839C203.032 95.5917 202.546 95.2393 202.145 94.782C201.748 94.3247 201.445 93.774 201.235 93.13C201.025 92.4813 200.92 91.758 200.92 90.96C200.92 89.9053 201.102 88.986 201.466 88.202C201.835 87.4133 202.362 86.802 203.048 86.368C203.734 85.934 204.558 85.717 205.519 85.717C206.592 85.717 207.465 85.969 208.137 86.473C208.814 86.9723 209.285 87.6443 209.551 88.489L208.515 88.741C208.296 88.125 207.934 87.6327 207.43 87.264C206.931 86.8953 206.308 86.711 205.561 86.711C204.772 86.7063 204.117 86.8837 203.594 87.243C203.071 87.5977 202.677 88.097 202.411 88.741C202.15 89.3803 202.017 90.12 202.012 90.96C202.007 91.8 202.136 92.5397 202.397 93.179C202.663 93.8137 203.06 94.313 203.587 94.677C204.114 95.0363 204.772 95.2183 205.561 95.223C206.284 95.223 206.882 95.083 207.353 94.803C207.824 94.523 208.181 94.1217 208.424 93.599C208.671 93.0763 208.811 92.458 208.844 91.744H206.52V90.862H209.922C209.936 90.9693 209.943 91.0837 209.943 91.205C209.948 91.3217 209.95 91.4057 209.95 91.457C209.95 92.367 209.787 93.1813 209.46 93.9C209.133 94.614 208.641 95.1787 207.983 95.594C207.33 96.0047 206.508 96.21 205.519 96.21ZM214.55 96.21C213.813 96.21 213.173 96.0467 212.632 95.72C212.095 95.3933 211.678 94.9337 211.379 94.341C211.08 93.7483 210.931 93.053 210.931 92.255C210.931 91.429 211.078 90.715 211.372 90.113C211.666 89.511 212.079 89.0467 212.611 88.72C213.148 88.3933 213.78 88.23 214.508 88.23C215.255 88.23 215.892 88.4027 216.419 88.748C216.946 89.0887 217.345 89.5787 217.616 90.218C217.887 90.8573 218.01 91.6203 217.987 92.507H216.937V92.143C216.918 91.163 216.706 90.4233 216.3 89.924C215.899 89.4247 215.311 89.175 214.536 89.175C213.724 89.175 213.101 89.4387 212.667 89.966C212.238 90.4933 212.023 91.2447 212.023 92.22C212.023 93.172 212.238 93.9117 212.667 94.439C213.101 94.9617 213.715 95.223 214.508 95.223C215.049 95.223 215.521 95.0993 215.922 94.852C216.328 94.6 216.648 94.2383 216.881 93.767L217.84 94.138C217.541 94.796 217.1 95.307 216.517 95.671C215.938 96.0303 215.283 96.21 214.55 96.21ZM211.659 92.507V91.646H217.434V92.507H211.659ZM219.541 96V88.44H220.465V90.26L220.283 90.022C220.367 89.798 220.476 89.5927 220.612 89.406C220.747 89.2147 220.894 89.0583 221.053 88.937C221.249 88.7643 221.477 88.6337 221.739 88.545C222 88.4517 222.264 88.398 222.53 88.384C222.796 88.3653 223.038 88.384 223.258 88.44V89.406C222.982 89.336 222.681 89.3197 222.355 89.357C222.028 89.3943 221.727 89.525 221.452 89.749C221.2 89.945 221.011 90.1807 220.885 90.456C220.759 90.7267 220.675 91.016 220.633 91.324C220.591 91.6273 220.57 91.9283 220.57 92.227V96H219.541ZM226.461 96.21C225.892 96.21 225.414 96.1073 225.026 95.902C224.644 95.6967 224.357 95.4237 224.165 95.083C223.974 94.7423 223.878 94.3713 223.878 93.97C223.878 93.5593 223.96 93.2093 224.123 92.92C224.291 92.626 224.518 92.3857 224.802 92.199C225.092 92.0123 225.425 91.87 225.803 91.772C226.186 91.6787 226.608 91.597 227.07 91.527C227.537 91.4523 227.992 91.3893 228.435 91.338C228.883 91.282 229.275 91.2283 229.611 91.177L229.247 91.401C229.261 90.6543 229.117 90.1013 228.813 89.742C228.51 89.3827 227.983 89.203 227.231 89.203C226.713 89.203 226.275 89.3197 225.915 89.553C225.561 89.7863 225.311 90.155 225.166 90.659L224.165 90.365C224.338 89.6883 224.686 89.1633 225.208 88.79C225.731 88.4167 226.41 88.23 227.245 88.23C227.936 88.23 228.522 88.3607 229.002 88.622C229.488 88.8787 229.831 89.252 230.031 89.742C230.125 89.9613 230.185 90.2063 230.213 90.477C230.241 90.7477 230.255 91.023 230.255 91.303V96H229.338V94.103L229.604 94.215C229.348 94.8637 228.949 95.3583 228.407 95.699C227.866 96.0397 227.217 96.21 226.461 96.21ZM226.58 95.321C227.061 95.321 227.481 95.2347 227.84 95.062C228.2 94.8893 228.489 94.6537 228.708 94.355C228.928 94.0517 229.07 93.711 229.135 93.333C229.191 93.0903 229.222 92.8243 229.226 92.535C229.231 92.241 229.233 92.0217 229.233 91.877L229.625 92.08C229.275 92.1267 228.895 92.1733 228.484 92.22C228.078 92.2667 227.677 92.3203 227.28 92.381C226.888 92.4417 226.534 92.514 226.216 92.598C226.002 92.6587 225.794 92.745 225.593 92.857C225.393 92.9643 225.227 93.109 225.096 93.291C224.97 93.473 224.907 93.6993 224.907 93.97C224.907 94.1893 224.961 94.4017 225.068 94.607C225.18 94.8123 225.358 94.9827 225.6 95.118C225.848 95.2533 226.174 95.321 226.58 95.321ZM235.011 96.21C234.306 96.21 233.704 96.035 233.205 95.685C232.705 95.3303 232.323 94.852 232.057 94.25C231.791 93.648 231.658 92.969 231.658 92.213C231.658 91.4617 231.788 90.785 232.05 90.183C232.316 89.581 232.696 89.105 233.191 88.755C233.685 88.405 234.278 88.23 234.969 88.23C235.678 88.23 236.275 88.4027 236.761 88.748C237.246 89.0933 237.612 89.567 237.86 90.169C238.112 90.7663 238.238 91.4477 238.238 92.213C238.238 92.9643 238.114 93.6433 237.867 94.25C237.619 94.852 237.255 95.3303 236.775 95.685C236.294 96.035 235.706 96.21 235.011 96.21ZM235.116 95.251C235.652 95.251 236.096 95.1203 236.446 94.859C236.796 94.5977 237.057 94.2383 237.23 93.781C237.402 93.319 237.489 92.7963 237.489 92.213C237.489 91.6203 237.402 91.0977 237.23 90.645C237.057 90.1877 236.796 89.8307 236.446 89.574C236.1 89.3173 235.664 89.189 235.137 89.189C234.595 89.189 234.147 89.322 233.793 89.588C233.438 89.854 233.174 90.2157 233.002 90.673C232.834 91.1303 232.75 91.6437 232.75 92.213C232.75 92.787 232.836 93.305 233.009 93.767C233.186 94.2243 233.45 94.586 233.8 94.852C234.15 95.118 234.588 95.251 235.116 95.251ZM237.489 96V90.309H237.377V85.92H238.413V96H237.489ZM243.533 96.21C242.782 96.21 242.14 96.0397 241.608 95.699C241.076 95.3583 240.668 94.887 240.383 94.285C240.099 93.683 239.956 92.9923 239.956 92.213C239.956 91.4197 240.101 90.7243 240.39 90.127C240.68 89.5297 241.09 89.0653 241.622 88.734C242.159 88.398 242.796 88.23 243.533 88.23C244.289 88.23 244.933 88.4003 245.465 88.741C246.002 89.077 246.41 89.546 246.69 90.148C246.975 90.7453 247.117 91.4337 247.117 92.213C247.117 93.0063 246.975 93.704 246.69 94.306C246.406 94.9033 245.995 95.37 245.458 95.706C244.922 96.042 244.28 96.21 243.533 96.21ZM243.533 95.223C244.373 95.223 244.999 94.9453 245.409 94.39C245.82 93.83 246.025 93.1043 246.025 92.213C246.025 91.2983 245.818 90.5703 245.402 90.029C244.992 89.4877 244.369 89.217 243.533 89.217C242.969 89.217 242.502 89.3453 242.133 89.602C241.769 89.854 241.496 90.2063 241.314 90.659C241.137 91.107 241.048 91.625 241.048 92.213C241.048 93.123 241.258 93.8533 241.678 94.404C242.098 94.95 242.717 95.223 243.533 95.223ZM248.662 96V88.44H249.586V90.26L249.404 90.022C249.488 89.798 249.597 89.5927 249.733 89.406C249.868 89.2147 250.015 89.0583 250.174 88.937C250.37 88.7643 250.598 88.6337 250.86 88.545C251.121 88.4517 251.385 88.398 251.651 88.384C251.917 88.3653 252.159 88.384 252.379 88.44V89.406C252.103 89.336 251.802 89.3197 251.476 89.357C251.149 89.3943 250.848 89.525 250.573 89.749C250.321 89.945 250.132 90.1807 250.006 90.456C249.88 90.7267 249.796 91.016 249.754 91.324C249.712 91.6273 249.691 91.9283 249.691 92.227V96H248.662ZM256.769 96.21C256.032 96.21 255.392 96.0467 254.851 95.72C254.314 95.3933 253.897 94.9337 253.598 94.341C253.299 93.7483 253.15 93.053 253.15 92.255C253.15 91.429 253.297 90.715 253.591 90.113C253.885 89.511 254.298 89.0467 254.83 88.72C255.367 88.3933 255.999 88.23 256.727 88.23C257.474 88.23 258.111 88.4027 258.638 88.748C259.165 89.0887 259.564 89.5787 259.835 90.218C260.106 90.8573 260.229 91.6203 260.206 92.507H259.156V92.143C259.137 91.163 258.925 90.4233 258.519 89.924C258.118 89.4247 257.53 89.175 256.755 89.175C255.943 89.175 255.32 89.4387 254.886 89.966C254.457 90.4933 254.242 91.2447 254.242 92.22C254.242 93.172 254.457 93.9117 254.886 94.439C255.32 94.9617 255.934 95.223 256.727 95.223C257.268 95.223 257.74 95.0993 258.141 94.852C258.547 94.6 258.867 94.2383 259.1 93.767L260.059 94.138C259.76 94.796 259.319 95.307 258.736 95.671C258.157 96.0303 257.502 96.21 256.769 96.21ZM253.878 92.507V91.646H259.653V92.507H253.878ZM264.58 96.203C263.694 96.203 262.963 96.0117 262.389 95.629C261.82 95.2463 261.47 94.7143 261.339 94.033L262.389 93.858C262.501 94.2873 262.756 94.6303 263.152 94.887C263.554 95.139 264.048 95.265 264.636 95.265C265.21 95.265 265.663 95.146 265.994 94.908C266.326 94.6653 266.491 94.3363 266.491 93.921C266.491 93.6877 266.438 93.4987 266.33 93.354C266.228 93.2047 266.015 93.067 265.693 92.941C265.371 92.815 264.891 92.6657 264.251 92.493C263.565 92.3063 263.029 92.1197 262.641 91.933C262.254 91.7463 261.979 91.5317 261.815 91.289C261.652 91.0417 261.57 90.7407 261.57 90.386C261.57 89.9567 261.692 89.581 261.934 89.259C262.177 88.9323 262.513 88.6803 262.942 88.503C263.372 88.321 263.871 88.23 264.44 88.23C265.01 88.23 265.518 88.3233 265.966 88.51C266.419 88.692 266.783 88.9487 267.058 89.28C267.334 89.6113 267.497 89.9963 267.548 90.435L266.498 90.624C266.428 90.1807 266.207 89.8307 265.833 89.574C265.465 89.3127 264.996 89.1773 264.426 89.168C263.89 89.154 263.453 89.2567 263.117 89.476C262.781 89.6907 262.613 89.9777 262.613 90.337C262.613 90.5377 262.674 90.7103 262.795 90.855C262.917 90.995 263.136 91.128 263.453 91.254C263.775 91.38 264.233 91.5177 264.825 91.667C265.521 91.8443 266.067 92.031 266.463 92.227C266.86 92.423 267.142 92.654 267.31 92.92C267.478 93.186 267.562 93.515 267.562 93.907C267.562 94.621 267.296 95.1833 266.764 95.594C266.237 96 265.509 96.203 264.58 96.203Z" fill="white"/>
</g>
<g filter="url(#filter4_d_82_23)">
<rect x="10.5" y="132" width="45" height="39" rx="19.5" fill="#0F0F0F" shape-rendering="crispEdges"/>
<rect x="10.75" y="132.25" width="44.5" height="38.5" rx="19.25" stroke="#0DA382" stroke-width="0.5" shape-rendering="crispEdges"/>
<path d="M26.78 157L30.252 146.92H31.617L35.089 157H34.018L30.721 147.494H31.127L27.851 157H26.78ZM28.327 154.557V153.591H33.535V154.557H28.327ZM36.493 157V146.92H37.522V157H36.493Z" fill="white"/>
</g>
<g filter="url(#filter5_d_82_23)">
<rect x="106.5" y="132" width="153" height="39" rx="19.5" fill="#0F0F0F" shape-rendering="crispEdges"/>
<rect x="106.75" y="132.25" width="152.5" height="38.5" rx="19.25" stroke="#0DA382" stroke-width="0.5" shape-rendering="crispEdges"/>
<path d="M123.48 157V146.92H127.372C127.47 146.92 127.58 146.925 127.701 146.934C127.827 146.939 127.953 146.953 128.079 146.976C128.606 147.055 129.052 147.24 129.416 147.529C129.785 147.814 130.062 148.173 130.249 148.607C130.44 149.041 130.536 149.522 130.536 150.049C130.536 150.572 130.44 151.05 130.249 151.484C130.058 151.918 129.778 152.28 129.409 152.569C129.045 152.854 128.602 153.036 128.079 153.115C127.953 153.134 127.827 153.148 127.701 153.157C127.58 153.166 127.47 153.171 127.372 153.171H124.509V157H123.48ZM124.509 152.191H127.344C127.428 152.191 127.526 152.186 127.638 152.177C127.75 152.168 127.86 152.151 127.967 152.128C128.312 152.053 128.595 151.911 128.814 151.701C129.038 151.491 129.204 151.241 129.311 150.952C129.423 150.663 129.479 150.362 129.479 150.049C129.479 149.736 129.423 149.435 129.311 149.146C129.204 148.852 129.038 148.6 128.814 148.39C128.595 148.18 128.312 148.038 127.967 147.963C127.86 147.94 127.75 147.926 127.638 147.921C127.526 147.912 127.428 147.907 127.344 147.907H124.509V152.191ZM135.031 148.25H134.149L134.989 146.08H135.871L135.031 148.25ZM133.764 157.21C133.195 157.21 132.716 157.107 132.329 156.902C131.946 156.697 131.659 156.424 131.468 156.083C131.277 155.742 131.181 155.371 131.181 154.97C131.181 154.559 131.263 154.209 131.426 153.92C131.594 153.626 131.82 153.386 132.105 153.199C132.394 153.012 132.728 152.87 133.106 152.772C133.489 152.679 133.911 152.597 134.373 152.527C134.84 152.452 135.295 152.389 135.738 152.338C136.186 152.282 136.578 152.228 136.914 152.177L136.55 152.401C136.564 151.654 136.419 151.101 136.116 150.742C135.813 150.383 135.285 150.203 134.534 150.203C134.016 150.203 133.577 150.32 133.218 150.553C132.863 150.786 132.614 151.155 132.469 151.659L131.468 151.365C131.641 150.688 131.988 150.163 132.511 149.79C133.034 149.417 133.713 149.23 134.548 149.23C135.239 149.23 135.824 149.361 136.305 149.622C136.79 149.879 137.133 150.252 137.334 150.742C137.427 150.961 137.488 151.206 137.516 151.477C137.544 151.748 137.558 152.023 137.558 152.303V157H136.641V155.103L136.907 155.215C136.65 155.864 136.251 156.358 135.71 156.699C135.169 157.04 134.52 157.21 133.764 157.21ZM133.883 156.321C134.364 156.321 134.784 156.235 135.143 156.062C135.502 155.889 135.792 155.654 136.011 155.355C136.23 155.052 136.373 154.711 136.438 154.333C136.494 154.09 136.524 153.824 136.529 153.535C136.534 153.241 136.536 153.022 136.536 152.877L136.928 153.08C136.578 153.127 136.198 153.173 135.787 153.22C135.381 153.267 134.98 153.32 134.583 153.381C134.191 153.442 133.836 153.514 133.519 153.598C133.304 153.659 133.097 153.745 132.896 153.857C132.695 153.964 132.53 154.109 132.399 154.291C132.273 154.473 132.21 154.699 132.21 154.97C132.21 155.189 132.264 155.402 132.371 155.607C132.483 155.812 132.66 155.983 132.903 156.118C133.15 156.253 133.477 156.321 133.883 156.321ZM142.383 160.57C141.996 160.57 141.613 160.512 141.235 160.395C140.862 160.283 140.517 160.103 140.199 159.856C139.882 159.613 139.616 159.296 139.401 158.904L140.332 158.386C140.542 158.806 140.836 159.107 141.214 159.289C141.597 159.476 141.987 159.569 142.383 159.569C142.929 159.569 143.37 159.466 143.706 159.261C144.047 159.06 144.294 158.762 144.448 158.365C144.602 157.968 144.677 157.474 144.672 156.881V154.865H144.791V149.44H145.708V156.895C145.708 157.11 145.701 157.315 145.687 157.511C145.678 157.712 145.657 157.908 145.624 158.099C145.536 158.664 145.351 159.128 145.071 159.492C144.796 159.856 144.432 160.127 143.979 160.304C143.531 160.481 142.999 160.57 142.383 160.57ZM142.313 157.21C141.609 157.21 141.007 157.035 140.507 156.685C140.008 156.33 139.625 155.852 139.359 155.25C139.093 154.648 138.96 153.969 138.96 153.213C138.96 152.462 139.091 151.785 139.352 151.183C139.618 150.581 139.999 150.105 140.493 149.755C140.988 149.405 141.581 149.23 142.271 149.23C142.981 149.23 143.578 149.403 144.063 149.748C144.549 150.093 144.915 150.567 145.162 151.169C145.414 151.766 145.54 152.448 145.54 153.213C145.54 153.964 145.417 154.643 145.169 155.25C144.922 155.852 144.558 156.33 144.077 156.685C143.597 157.035 143.009 157.21 142.313 157.21ZM142.418 156.251C142.955 156.251 143.398 156.12 143.748 155.859C144.098 155.598 144.36 155.238 144.532 154.781C144.705 154.319 144.791 153.796 144.791 153.213C144.791 152.62 144.705 152.098 144.532 151.645C144.36 151.188 144.098 150.831 143.748 150.574C143.403 150.317 142.967 150.189 142.439 150.189C141.898 150.189 141.45 150.322 141.095 150.588C140.741 150.854 140.477 151.216 140.304 151.673C140.136 152.13 140.052 152.644 140.052 153.213C140.052 153.787 140.139 154.305 140.311 154.767C140.489 155.224 140.752 155.586 141.102 155.852C141.452 156.118 141.891 156.251 142.418 156.251ZM147.806 148.005V146.85H148.835V148.005H147.806ZM147.806 157V149.44H148.835V157H147.806ZM156.393 157V153.143C156.393 152.723 156.353 152.338 156.274 151.988C156.195 151.633 156.066 151.325 155.889 151.064C155.716 150.798 155.49 150.593 155.21 150.448C154.935 150.303 154.599 150.231 154.202 150.231C153.838 150.231 153.516 150.294 153.236 150.42C152.961 150.546 152.727 150.728 152.536 150.966C152.349 151.199 152.207 151.484 152.109 151.82C152.011 152.156 151.962 152.539 151.962 152.968L151.234 152.807C151.234 152.032 151.369 151.381 151.64 150.854C151.911 150.327 152.284 149.928 152.76 149.657C153.236 149.386 153.782 149.251 154.398 149.251C154.851 149.251 155.245 149.321 155.581 149.461C155.922 149.601 156.209 149.79 156.442 150.028C156.68 150.266 156.871 150.539 157.016 150.847C157.161 151.15 157.266 151.475 157.331 151.82C157.396 152.161 157.429 152.501 157.429 152.842V157H156.393ZM150.926 157V149.44H151.857V151.302H151.962V157H150.926ZM161.409 157.21C160.839 157.21 160.361 157.107 159.974 156.902C159.591 156.697 159.304 156.424 159.113 156.083C158.921 155.742 158.826 155.371 158.826 154.97C158.826 154.559 158.907 154.209 159.071 153.92C159.239 153.626 159.465 153.386 159.75 153.199C160.039 153.012 160.373 152.87 160.751 152.772C161.133 152.679 161.556 152.597 162.018 152.527C162.484 152.452 162.939 152.389 163.383 152.338C163.831 152.282 164.223 152.228 164.559 152.177L164.195 152.401C164.209 151.654 164.064 151.101 163.761 150.742C163.457 150.383 162.93 150.203 162.179 150.203C161.661 150.203 161.222 150.32 160.863 150.553C160.508 150.786 160.258 151.155 160.114 151.659L159.113 151.365C159.285 150.688 159.633 150.163 160.156 149.79C160.678 149.417 161.357 149.23 162.193 149.23C162.883 149.23 163.469 149.361 163.95 149.622C164.435 149.879 164.778 150.252 164.979 150.742C165.072 150.961 165.133 151.206 165.161 151.477C165.189 151.748 165.203 152.023 165.203 152.303V157H164.286V155.103L164.552 155.215C164.295 155.864 163.896 156.358 163.355 156.699C162.813 157.04 162.165 157.21 161.409 157.21ZM161.528 156.321C162.008 156.321 162.428 156.235 162.788 156.062C163.147 155.889 163.436 155.654 163.656 155.355C163.875 155.052 164.017 154.711 164.083 154.333C164.139 154.09 164.169 153.824 164.174 153.535C164.178 153.241 164.181 153.022 164.181 152.877L164.573 153.08C164.223 153.127 163.842 153.173 163.432 153.22C163.026 153.267 162.624 153.32 162.228 153.381C161.836 153.442 161.481 153.514 161.164 153.598C160.949 153.659 160.741 153.745 160.541 153.857C160.34 153.964 160.174 154.109 160.044 154.291C159.918 154.473 159.855 154.699 159.855 154.97C159.855 155.189 159.908 155.402 160.016 155.607C160.128 155.812 160.305 155.983 160.548 156.118C160.795 156.253 161.122 156.321 161.528 156.321ZM169.846 157.203C168.959 157.203 168.229 157.012 167.655 156.629C167.086 156.246 166.736 155.714 166.605 155.033L167.655 154.858C167.767 155.287 168.021 155.63 168.418 155.887C168.819 156.139 169.314 156.265 169.902 156.265C170.476 156.265 170.929 156.146 171.26 155.908C171.591 155.665 171.757 155.336 171.757 154.921C171.757 154.688 171.703 154.499 171.596 154.354C171.493 154.205 171.281 154.067 170.959 153.941C170.637 153.815 170.156 153.666 169.517 153.493C168.831 153.306 168.294 153.12 167.907 152.933C167.52 152.746 167.244 152.532 167.081 152.289C166.918 152.042 166.836 151.741 166.836 151.386C166.836 150.957 166.957 150.581 167.2 150.259C167.443 149.932 167.779 149.68 168.208 149.503C168.637 149.321 169.137 149.23 169.706 149.23C170.275 149.23 170.784 149.323 171.232 149.51C171.685 149.692 172.049 149.949 172.324 150.28C172.599 150.611 172.763 150.996 172.814 151.435L171.764 151.624C171.694 151.181 171.472 150.831 171.099 150.574C170.73 150.313 170.261 150.177 169.692 150.168C169.155 150.154 168.719 150.257 168.383 150.476C168.047 150.691 167.879 150.978 167.879 151.337C167.879 151.538 167.94 151.71 168.061 151.855C168.182 151.995 168.402 152.128 168.719 152.254C169.041 152.38 169.498 152.518 170.091 152.667C170.786 152.844 171.332 153.031 171.729 153.227C172.126 153.423 172.408 153.654 172.576 153.92C172.744 154.186 172.828 154.515 172.828 154.907C172.828 155.621 172.562 156.183 172.03 156.594C171.503 157 170.775 157.203 169.846 157.203ZM180.116 157.21C179.411 157.21 178.809 157.035 178.31 156.685C177.811 156.33 177.428 155.852 177.162 155.25C176.896 154.648 176.763 153.969 176.763 153.213C176.763 152.462 176.894 151.785 177.155 151.183C177.421 150.581 177.801 150.105 178.296 149.755C178.791 149.405 179.383 149.23 180.074 149.23C180.783 149.23 181.381 149.403 181.866 149.748C182.351 150.093 182.718 150.567 182.965 151.169C183.217 151.766 183.343 152.448 183.343 153.213C183.343 153.964 183.219 154.643 182.972 155.25C182.725 155.852 182.361 156.33 181.88 156.685C181.399 157.035 180.811 157.21 180.116 157.21ZM180.221 156.251C180.758 156.251 181.201 156.12 181.551 155.859C181.901 155.598 182.162 155.238 182.335 154.781C182.508 154.319 182.594 153.796 182.594 153.213C182.594 152.62 182.508 152.098 182.335 151.645C182.162 151.188 181.901 150.831 181.551 150.574C181.206 150.317 180.769 150.189 180.242 150.189C179.701 150.189 179.253 150.322 178.898 150.588C178.543 150.854 178.28 151.216 178.107 151.673C177.939 152.13 177.855 152.644 177.855 153.213C177.855 153.787 177.941 154.305 178.114 154.767C178.291 155.224 178.555 155.586 178.905 155.852C179.255 156.118 179.694 156.251 180.221 156.251ZM182.594 157V151.309H182.482V146.92H183.518V157H182.594ZM188.681 157.21C187.944 157.21 187.304 157.047 186.763 156.72C186.226 156.393 185.809 155.934 185.51 155.341C185.211 154.748 185.062 154.053 185.062 153.255C185.062 152.429 185.209 151.715 185.503 151.113C185.797 150.511 186.21 150.047 186.742 149.72C187.279 149.393 187.911 149.23 188.639 149.23C189.386 149.23 190.023 149.403 190.55 149.748C191.077 150.089 191.476 150.579 191.747 151.218C192.018 151.857 192.141 152.62 192.118 153.507H191.068V153.143C191.049 152.163 190.837 151.423 190.431 150.924C190.03 150.425 189.442 150.175 188.667 150.175C187.855 150.175 187.232 150.439 186.798 150.966C186.369 151.493 186.154 152.245 186.154 153.22C186.154 154.172 186.369 154.912 186.798 155.439C187.232 155.962 187.846 156.223 188.639 156.223C189.18 156.223 189.652 156.099 190.053 155.852C190.459 155.6 190.779 155.238 191.012 154.767L191.971 155.138C191.672 155.796 191.231 156.307 190.648 156.671C190.069 157.03 189.414 157.21 188.681 157.21ZM185.79 153.507V152.646H191.565V153.507H185.79ZM199.036 157L195.564 146.92H196.635L199.708 155.831L202.802 146.92H203.873L200.401 157H199.036ZM207.288 157.21C206.551 157.21 205.912 157.047 205.37 156.72C204.834 156.393 204.416 155.934 204.117 155.341C203.819 154.748 203.669 154.053 203.669 153.255C203.669 152.429 203.816 151.715 204.11 151.113C204.404 150.511 204.817 150.047 205.349 149.72C205.886 149.393 206.518 149.23 207.246 149.23C207.993 149.23 208.63 149.403 209.157 149.748C209.685 150.089 210.084 150.579 210.354 151.218C210.625 151.857 210.749 152.62 210.725 153.507H209.675V153.143C209.657 152.163 209.444 151.423 209.038 150.924C208.637 150.425 208.049 150.175 207.274 150.175C206.462 150.175 205.839 150.439 205.405 150.966C204.976 151.493 204.761 152.245 204.761 153.22C204.761 154.172 204.976 154.912 205.405 155.439C205.839 155.962 206.453 156.223 207.246 156.223C207.788 156.223 208.259 156.099 208.66 155.852C209.066 155.6 209.386 155.238 209.619 154.767L210.578 155.138C210.28 155.796 209.839 156.307 209.255 156.671C208.677 157.03 208.021 157.21 207.288 157.21ZM204.397 153.507V152.646H210.172V153.507H204.397ZM217.534 157V153.143C217.534 152.723 217.494 152.338 217.415 151.988C217.335 151.633 217.207 151.325 217.03 151.064C216.857 150.798 216.631 150.593 216.351 150.448C216.075 150.303 215.739 150.231 215.343 150.231C214.979 150.231 214.657 150.294 214.377 150.42C214.101 150.546 213.868 150.728 213.677 150.966C213.49 151.199 213.348 151.484 213.25 151.82C213.152 152.156 213.103 152.539 213.103 152.968L212.375 152.807C212.375 152.032 212.51 151.381 212.781 150.854C213.051 150.327 213.425 149.928 213.901 149.657C214.377 149.386 214.923 149.251 215.539 149.251C215.991 149.251 216.386 149.321 216.722 149.461C217.062 149.601 217.349 149.79 217.583 150.028C217.821 150.266 218.012 150.539 218.157 150.847C218.301 151.15 218.406 151.475 218.472 151.82C218.537 152.161 218.57 152.501 218.57 152.842V157H217.534ZM212.067 157V149.44H212.998V151.302H213.103V157H212.067ZM223.278 157.21C222.574 157.21 221.972 157.035 221.472 156.685C220.973 156.33 220.59 155.852 220.324 155.25C220.058 154.648 219.925 153.969 219.925 153.213C219.925 152.462 220.056 151.785 220.317 151.183C220.583 150.581 220.964 150.105 221.458 149.755C221.953 149.405 222.546 149.23 223.236 149.23C223.946 149.23 224.543 149.403 225.028 149.748C225.514 150.093 225.88 150.567 226.127 151.169C226.379 151.766 226.505 152.448 226.505 153.213C226.505 153.964 226.382 154.643 226.134 155.25C225.887 155.852 225.523 156.33 225.042 156.685C224.562 157.035 223.974 157.21 223.278 157.21ZM223.383 156.251C223.92 156.251 224.363 156.12 224.713 155.859C225.063 155.598 225.325 155.238 225.497 154.781C225.67 154.319 225.756 153.796 225.756 153.213C225.756 152.62 225.67 152.098 225.497 151.645C225.325 151.188 225.063 150.831 224.713 150.574C224.368 150.317 223.932 150.189 223.404 150.189C222.863 150.189 222.415 150.322 222.06 150.588C221.706 150.854 221.442 151.216 221.269 151.673C221.101 152.13 221.017 152.644 221.017 153.213C221.017 153.787 221.104 154.305 221.276 154.767C221.454 155.224 221.717 155.586 222.067 155.852C222.417 156.118 222.856 156.251 223.383 156.251ZM225.756 157V151.309H225.644V146.92H226.68V157H225.756ZM230.807 157.21C230.238 157.21 229.759 157.107 229.372 156.902C228.989 156.697 228.702 156.424 228.511 156.083C228.32 155.742 228.224 155.371 228.224 154.97C228.224 154.559 228.306 154.209 228.469 153.92C228.637 153.626 228.863 153.386 229.148 153.199C229.437 153.012 229.771 152.87 230.149 152.772C230.532 152.679 230.954 152.597 231.416 152.527C231.883 152.452 232.338 152.389 232.781 152.338C233.229 152.282 233.621 152.228 233.957 152.177L233.593 152.401C233.607 151.654 233.462 151.101 233.159 150.742C232.856 150.383 232.328 150.203 231.577 150.203C231.059 150.203 230.62 150.32 230.261 150.553C229.906 150.786 229.657 151.155 229.512 151.659L228.511 151.365C228.684 150.688 229.031 150.163 229.554 149.79C230.077 149.417 230.756 149.23 231.591 149.23C232.282 149.23 232.867 149.361 233.348 149.622C233.833 149.879 234.176 150.252 234.377 150.742C234.47 150.961 234.531 151.206 234.559 151.477C234.587 151.748 234.601 152.023 234.601 152.303V157H233.684V155.103L233.95 155.215C233.693 155.864 233.294 156.358 232.753 156.699C232.212 157.04 231.563 157.21 230.807 157.21ZM230.926 156.321C231.407 156.321 231.827 156.235 232.186 156.062C232.545 155.889 232.835 155.654 233.054 155.355C233.273 155.052 233.416 154.711 233.481 154.333C233.537 154.09 233.567 153.824 233.572 153.535C233.577 153.241 233.579 153.022 233.579 152.877L233.971 153.08C233.621 153.127 233.241 153.173 232.83 153.22C232.424 153.267 232.023 153.32 231.626 153.381C231.234 153.442 230.879 153.514 230.562 153.598C230.347 153.659 230.14 153.745 229.939 153.857C229.738 153.964 229.573 154.109 229.442 154.291C229.316 154.473 229.253 154.699 229.253 154.97C229.253 155.189 229.307 155.402 229.414 155.607C229.526 155.812 229.703 155.983 229.946 156.118C230.193 156.253 230.52 156.321 230.926 156.321ZM239.244 157.203C238.358 157.203 237.627 157.012 237.053 156.629C236.484 156.246 236.134 155.714 236.003 155.033L237.053 154.858C237.165 155.287 237.42 155.63 237.816 155.887C238.218 156.139 238.712 156.265 239.3 156.265C239.874 156.265 240.327 156.146 240.658 155.908C240.99 155.665 241.155 155.336 241.155 154.921C241.155 154.688 241.102 154.499 240.994 154.354C240.892 154.205 240.679 154.067 240.357 153.941C240.035 153.815 239.555 153.666 238.915 153.493C238.229 153.306 237.693 153.12 237.305 152.933C236.918 152.746 236.643 152.532 236.479 152.289C236.316 152.042 236.234 151.741 236.234 151.386C236.234 150.957 236.356 150.581 236.598 150.259C236.841 149.932 237.177 149.68 237.606 149.503C238.036 149.321 238.535 149.23 239.104 149.23C239.674 149.23 240.182 149.323 240.63 149.51C241.083 149.692 241.447 149.949 241.722 150.28C241.998 150.611 242.161 150.996 242.212 151.435L241.162 151.624C241.092 151.181 240.871 150.831 240.497 150.574C240.129 150.313 239.66 150.177 239.09 150.168C238.554 150.154 238.117 150.257 237.781 150.476C237.445 150.691 237.277 150.978 237.277 151.337C237.277 151.538 237.338 151.71 237.459 151.855C237.581 151.995 237.8 152.128 238.117 152.254C238.439 152.38 238.897 152.518 239.489 152.667C240.185 152.844 240.731 153.031 241.127 153.227C241.524 153.423 241.806 153.654 241.974 153.92C242.142 154.186 242.226 154.515 242.226 154.907C242.226 155.621 241.96 156.183 241.428 156.594C240.901 157 240.173 157.203 239.244 157.203Z" fill="white"/>
</g>
<defs>
<filter id="filter0_d_82_23" x="5.5" y="0" width="155" height="59" filterUnits="userSpaceOnUse" color-interpolation-filters="sRGB">
<feFlood flood-opacity="0" result="BackgroundImageFix"/>
<feColorMatrix in="SourceAlpha" type="matrix" values="0 0 0 0 0 0 0 0 0 0 0 0 0 0 0 0 0 0 127 0" result="hardAlpha"/>
<feOffset/>
<feGaussianBlur stdDeviation="5"/>
<feComposite in2="hardAlpha" operator="out"/>
<feColorMatrix type="matrix" values="0 0 0 0 0.172549 0 0 0 0 0.984314 0 0 0 0 0.803922 0 0 0 0.1 0"/>
<feBlend mode="normal" in2="BackgroundImageFix" result="effect1_dropShadow_82_23"/>
<feBlend mode="normal" in="SourceGraphic" in2="effect1_dropShadow_82_23" result="shape"/>
</filter>
<filter id="filter1_d_82_23" x="167.5" y="0" width="76" height="59" filterUnits="userSpaceOnUse" color-interpolation-filters="sRGB">
<feFlood flood-opacity="0" result="BackgroundImageFix"/>
<feColorMatrix in="SourceAlpha" type="matrix" values="0 0 0 0 0 0 0 0 0 0 0 0 0 0 0 0 0 0 127 0" result="hardAlpha"/>
<feOffset/>
<feGaussianBlur stdDeviation="5"/>
<feComposite in2="hardAlpha" operator="out"/>
<feColorMatrix type="matrix" values="0 0 0 0 0.172549 0 0 0 0 0.984314 0 0 0 0 0.803922 0 0 0 0.1 0"/>
<feBlend mode="normal" in2="BackgroundImageFix" result="effect1_dropShadow_82_23"/>
<feBlend mode="normal" in="SourceGraphic" in2="effect1_dropShadow_82_23" result="shape"/>
</filter>
<filter id="filter2_d_82_23" x="5.5" y="61" width="165" height="59" filterUnits="userSpaceOnUse" color-interpolation-filters="sRGB">
<feFlood flood-opacity="0" result="BackgroundImageFix"/>
<feColorMatrix in="SourceAlpha" type="matrix" values="0 0 0 0 0 0 0 0 0 0 0 0 0 0 0 0 0 0 127 0" result="hardAlpha"/>
<feOffset/>
<feGaussianBlur stdDeviation="5"/>
<feComposite in2="hardAlpha" operator="out"/>
<feColorMatrix type="matrix" values="0 0 0 0 0.172549 0 0 0 0 0.984314 0 0 0 0 0.803922 0 0 0 0.1 0"/>
<feBlend mode="normal" in2="BackgroundImageFix" result="effect1_dropShadow_82_23"/>
<feBlend mode="normal" in="SourceGraphic" in2="effect1_dropShadow_82_23" result="shape"/>
</filter>
<filter id="filter3_d_82_23" x="174.5" y="61" width="120" height="59" filterUnits="userSpaceOnUse" color-interpolation-filters="sRGB">
<feFlood flood-opacity="0" result="BackgroundImageFix"/>
<feColorMatrix in="SourceAlpha" type="matrix" values="0 0 0 0 0 0 0 0 0 0 0 0 0 0 0 0 0 0 127 0" result="hardAlpha"/>
<feOffset/>
<feGaussianBlur stdDeviation="5"/>
<feComposite in2="hardAlpha" operator="out"/>
<feColorMatrix type="matrix" values="0 0 0 0 0.172549 0 0 0 0 0.984314 0 0 0 0 0.803922 0 0 0 0.1 0"/>
<feBlend mode="normal" in2="BackgroundImageFix" result="effect1_dropShadow_82_23"/>
<feBlend mode="normal" in="SourceGraphic" in2="effect1_dropShadow_82_23" result="shape"/>
</filter>
<filter id="filter4_d_82_23" x="0.5" y="122" width="65" height="59" filterUnits="userSpaceOnUse" color-interpolation-filters="sRGB">
<feFlood flood-opacity="0" result="BackgroundImageFix"/>
<feColorMatrix in="SourceAlpha" type="matrix" values="0 0 0 0 0 0 0 0 0 0 0 0 0 0 0 0 0 0 127 0" result="hardAlpha"/>
<feOffset/>
<feGaussianBlur stdDeviation="5"/>
<feComposite in2="hardAlpha" operator="out"/>
<feColorMatrix type="matrix" values="0 0 0 0 0.172549 0 0 0 0 0.984314 0 0 0 0 0.803922 0 0 0 0.1 0"/>
<feBlend mode="normal" in2="BackgroundImageFix" result="effect1_dropShadow_82_23"/>
<feBlend mode="normal" in="SourceGraphic" in2="effect1_dropShadow_82_23" result="shape"/>
</filter>
<filter id="filter5_d_82_23" x="96.5" y="122" width="173" height="59" filterUnits="userSpaceOnUse" color-interpolation-filters="sRGB">
<feFlood flood-opacity="0" result="BackgroundImageFix"/>
<feColorMatrix in="SourceAlpha" type="matrix" values="0 0 0 0 0 0 0 0 0 0 0 0 0 0 0 0 0 0 127 0" result="hardAlpha"/>
<feOffset/>
<feGaussianBlur stdDeviation="5"/>
<feComposite in2="hardAlpha" operator="out"/>
<feColorMatrix type="matrix" values="0 0 0 0 0.172549 0 0 0 0 0.984314 0 0 0 0 0.803922 0 0 0 0.1 0"/>
<feBlend mode="normal" in2="BackgroundImageFix" result="effect1_dropShadow_82_23"/>
<feBlend mode="normal" in="SourceGraphic" in2="effect1_dropShadow_82_23" result="shape"/>
</filter>
</defs>
</svg>
