<svg width="300" height="167" viewBox="0 0 300 167" fill="none" xmlns="http://www.w3.org/2000/svg">
<rect x="15.75" y="0.25" width="134.5" height="38.5" rx="19.25" fill="#0F0F0F"/>
<rect x="15.75" y="0.25" width="134.5" height="38.5" rx="19.25" stroke="#0DA382" stroke-width="0.5"/>
<path d="M32.48 25V14.92H38.78V15.907H33.509V19.393H37.94V20.38H33.509V24.013H38.78V25H32.48ZM49.4804 25L49.4874 20.037C49.4874 19.4537 49.324 18.9963 48.9974 18.665C48.6754 18.329 48.2647 18.161 47.7654 18.161C47.4807 18.161 47.203 18.2263 46.9324 18.357C46.6617 18.4877 46.4377 18.6977 46.2604 18.987C46.0877 19.2763 46.0014 19.6543 46.0014 20.121L45.3924 19.946C45.3784 19.4047 45.4834 18.931 45.7074 18.525C45.936 18.119 46.2487 17.804 46.6454 17.58C47.0467 17.3513 47.4994 17.237 48.0034 17.237C48.764 17.237 49.373 17.4727 49.8304 17.944C50.2877 18.4107 50.5164 19.043 50.5164 19.841L50.5094 25H49.4804ZM40.4574 25V17.44H41.3814V19.302H41.4934V25H40.4574ZM44.9794 25L44.9864 20.107C44.9864 19.505 44.8254 19.0313 44.5034 18.686C44.186 18.336 43.766 18.161 43.2434 18.161C42.7207 18.161 42.2984 18.3407 41.9764 18.7C41.6544 19.0547 41.4934 19.5283 41.4934 20.121L40.8774 19.785C40.8774 19.2997 40.9917 18.8657 41.2204 18.483C41.449 18.0957 41.7617 17.7923 42.1584 17.573C42.555 17.349 43.0054 17.237 43.5094 17.237C43.99 17.237 44.417 17.3397 44.7904 17.545C45.1684 17.7503 45.4647 18.049 45.6794 18.441C45.894 18.833 46.0014 19.309 46.0014 19.869L45.9944 25H44.9794ZM54.4946 25.21C53.9252 25.21 53.4469 25.1073 53.0596 24.902C52.6769 24.6967 52.3899 24.4237 52.1986 24.083C52.0072 23.7423 51.9116 23.3713 51.9116 22.97C51.9116 22.5593 51.9932 22.2093 52.1566 21.92C52.3246 21.626 52.5509 21.3857 52.8356 21.199C53.1249 21.0123 53.4586 20.87 53.8366 20.772C54.2192 20.6787 54.6416 20.597 55.1036 20.527C55.5702 20.4523 56.0252 20.3893 56.4686 20.338C56.9166 20.282 57.3086 20.2283 57.6446 20.177L57.2806 20.401C57.2946 19.6543 57.1499 19.1013 56.8466 18.742C56.5432 18.3827 56.0159 18.203 55.2646 18.203C54.7466 18.203 54.3079 18.3197 53.9486 18.553C53.5939 18.7863 53.3442 19.155 53.1996 19.659L52.1986 19.365C52.3712 18.6883 52.7189 18.1633 53.2416 17.79C53.7642 17.4167 54.4432 17.23 55.2786 17.23C55.9692 17.23 56.5549 17.3607 57.0356 17.622C57.5209 17.8787 57.8639 18.252 58.0646 18.742C58.1579 18.9613 58.2186 19.2063 58.2466 19.477C58.2746 19.7477 58.2886 20.023 58.2886 20.303V25H57.3716V23.103L57.6376 23.215C57.3809 23.8637 56.9819 24.3583 56.4406 24.699C55.8992 25.0397 55.2506 25.21 54.4946 25.21ZM54.6136 24.321C55.0942 24.321 55.5142 24.2347 55.8736 24.062C56.2329 23.8893 56.5222 23.6537 56.7416 23.355C56.9609 23.0517 57.1032 22.711 57.1686 22.333C57.2246 22.0903 57.2549 21.8243 57.2596 21.535C57.2642 21.241 57.2666 21.0217 57.2666 20.877L57.6586 21.08C57.3086 21.1267 56.9282 21.1733 56.5176 21.22C56.1116 21.2667 55.7102 21.3203 55.3136 21.381C54.9216 21.4417 54.5669 21.514 54.2496 21.598C54.0349 21.6587 53.8272 21.745 53.6266 21.857C53.4259 21.9643 53.2602 22.109 53.1296 22.291C53.0036 22.473 52.9406 22.6993 52.9406 22.97C52.9406 23.1893 52.9942 23.4017 53.1016 23.607C53.2136 23.8123 53.3909 23.9827 53.6336 24.118C53.8809 24.2533 54.2076 24.321 54.6136 24.321ZM60.2509 16.005V14.85H61.2799V16.005H60.2509ZM60.2509 25V17.44H61.2799V25H60.2509ZM63.5184 25V14.71H64.5474V25H63.5184ZM69.4488 25V14.92H70.3938L74.3558 23.397L78.2968 14.92H79.2558V24.993H78.2758V17.216L74.6848 25H74.0198L70.4358 17.216V25H69.4488ZM83.3832 25.21C82.8139 25.21 82.3356 25.1073 81.9482 24.902C81.5656 24.6967 81.2786 24.4237 81.0872 24.083C80.8959 23.7423 80.8002 23.3713 80.8002 22.97C80.8002 22.5593 80.8819 22.2093 81.0452 21.92C81.2132 21.626 81.4396 21.3857 81.7242 21.199C82.0136 21.0123 82.3472 20.87 82.7252 20.772C83.1079 20.6787 83.5302 20.597 83.9922 20.527C84.4589 20.4523 84.9139 20.3893 85.3572 20.338C85.8052 20.282 86.1972 20.2283 86.5332 20.177L86.1692 20.401C86.1832 19.6543 86.0386 19.1013 85.7352 18.742C85.4319 18.3827 84.9046 18.203 84.1532 18.203C83.6352 18.203 83.1966 18.3197 82.8372 18.553C82.4826 18.7863 82.2329 19.155 82.0882 19.659L81.0872 19.365C81.2599 18.6883 81.6076 18.1633 82.1302 17.79C82.6529 17.4167 83.3319 17.23 84.1672 17.23C84.8579 17.23 85.4436 17.3607 85.9242 17.622C86.4096 17.8787 86.7526 18.252 86.9532 18.742C87.0466 18.9613 87.1072 19.2063 87.1352 19.477C87.1632 19.7477 87.1772 20.023 87.1772 20.303V25H86.2602V23.103L86.5262 23.215C86.2696 23.8637 85.8706 24.3583 85.3292 24.699C84.7879 25.0397 84.1392 25.21 83.3832 25.21ZM83.5022 24.321C83.9829 24.321 84.4029 24.2347 84.7622 24.062C85.1216 23.8893 85.4109 23.6537 85.6302 23.355C85.8496 23.0517 85.9919 22.711 86.0572 22.333C86.1132 22.0903 86.1436 21.8243 86.1482 21.535C86.1529 21.241 86.1552 21.0217 86.1552 20.877L86.5472 21.08C86.1972 21.1267 85.8169 21.1733 85.4062 21.22C85.0002 21.2667 84.5989 21.3203 84.2022 21.381C83.8102 21.4417 83.4556 21.514 83.1382 21.598C82.9236 21.6587 82.7159 21.745 82.5152 21.857C82.3146 21.9643 82.1489 22.109 82.0182 22.291C81.8922 22.473 81.8292 22.6993 81.8292 22.97C81.8292 23.1893 81.8829 23.4017 81.9902 23.607C82.1022 23.8123 82.2796 23.9827 82.5222 24.118C82.7696 24.2533 83.0962 24.321 83.5022 24.321ZM88.9995 25V17.44H89.9235V19.26L89.7415 19.022C89.8255 18.798 89.9352 18.5927 90.0705 18.406C90.2059 18.2147 90.3529 18.0583 90.5115 17.937C90.7075 17.7643 90.9362 17.6337 91.1975 17.545C91.4589 17.4517 91.7225 17.398 91.9885 17.384C92.2545 17.3653 92.4972 17.384 92.7165 17.44V18.406C92.4412 18.336 92.1402 18.3197 91.8135 18.357C91.4869 18.3943 91.1859 18.525 90.9105 18.749C90.6585 18.945 90.4695 19.1807 90.3435 19.456C90.2175 19.7267 90.1335 20.016 90.0915 20.324C90.0495 20.6273 90.0285 20.9283 90.0285 21.227V25H88.9995ZM94.0375 25L94.0445 14.92H95.0805V21.08L98.4545 17.44H99.8265L96.2845 21.22L100.288 25H98.7905L95.0805 21.36V25H94.0375ZM104.052 25.21C103.315 25.21 102.675 25.0467 102.134 24.72C101.597 24.3933 101.18 23.9337 100.881 23.341C100.582 22.7483 100.433 22.053 100.433 21.255C100.433 20.429 100.58 19.715 100.874 19.113C101.168 18.511 101.581 18.0467 102.113 17.72C102.65 17.3933 103.282 17.23 104.01 17.23C104.757 17.23 105.394 17.4027 105.921 17.748C106.448 18.0887 106.847 18.5787 107.118 19.218C107.389 19.8573 107.512 20.6203 107.489 21.507H106.439V21.143C106.42 20.163 106.208 19.4233 105.802 18.924C105.401 18.4247 104.813 18.175 104.038 18.175C103.226 18.175 102.603 18.4387 102.169 18.966C101.74 19.4933 101.525 20.2447 101.525 21.22C101.525 22.172 101.74 22.9117 102.169 23.439C102.603 23.9617 103.217 24.223 104.01 24.223C104.551 24.223 105.023 24.0993 105.424 23.852C105.83 23.6 106.15 23.2383 106.383 22.767L107.342 23.138C107.043 23.796 106.602 24.307 106.019 24.671C105.44 25.0303 104.785 25.21 104.052 25.21ZM101.161 21.507V20.646H106.936V21.507H101.161ZM113.159 25C112.734 25.0887 112.314 25.1237 111.899 25.105C111.488 25.0863 111.119 24.9977 110.793 24.839C110.471 24.6803 110.226 24.433 110.058 24.097C109.922 23.817 109.848 23.5347 109.834 23.25C109.824 22.9607 109.82 22.6317 109.82 22.263V15.34H110.842V22.221C110.842 22.5383 110.844 22.8043 110.849 23.019C110.858 23.229 110.907 23.4157 110.996 23.579C111.164 23.8917 111.43 24.0783 111.794 24.139C112.162 24.1997 112.617 24.1857 113.159 24.097V25ZM108.203 18.322V17.44H113.159V18.322H108.203ZM114.788 16.005V14.85H115.817V16.005H114.788ZM114.788 25V17.44H115.817V25H114.788ZM123.376 25V21.143C123.376 20.723 123.336 20.338 123.257 19.988C123.177 19.6333 123.049 19.3253 122.872 19.064C122.699 18.798 122.473 18.5927 122.193 18.448C121.917 18.3033 121.581 18.231 121.185 18.231C120.821 18.231 120.499 18.294 120.219 18.42C119.943 18.546 119.71 18.728 119.519 18.966C119.332 19.1993 119.19 19.484 119.092 19.82C118.994 20.156 118.945 20.5387 118.945 20.968L118.217 20.807C118.217 20.0323 118.352 19.3813 118.623 18.854C118.893 18.3267 119.267 17.9277 119.743 17.657C120.219 17.3863 120.765 17.251 121.381 17.251C121.833 17.251 122.228 17.321 122.564 17.461C122.904 17.601 123.191 17.79 123.425 18.028C123.663 18.266 123.854 18.539 123.999 18.847C124.143 19.1503 124.248 19.4747 124.314 19.82C124.379 20.1607 124.412 20.5013 124.412 20.842V25H123.376ZM117.909 25V17.44H118.84V19.302H118.945V25H117.909ZM129.231 28.57C128.844 28.57 128.461 28.5117 128.083 28.395C127.71 28.283 127.364 28.1033 127.047 27.856C126.73 27.6133 126.464 27.296 126.249 26.904L127.18 26.386C127.39 26.806 127.684 27.107 128.062 27.289C128.445 27.4757 128.834 27.569 129.231 27.569C129.777 27.569 130.218 27.4663 130.554 27.261C130.895 27.0603 131.142 26.7617 131.296 26.365C131.45 25.9683 131.525 25.4737 131.52 24.881V22.865H131.639V17.44H132.556V24.895C132.556 25.1097 132.549 25.315 132.535 25.511C132.526 25.7117 132.505 25.9077 132.472 26.099C132.383 26.6637 132.199 27.128 131.919 27.492C131.644 27.856 131.28 28.1267 130.827 28.304C130.379 28.4813 129.847 28.57 129.231 28.57ZM129.161 25.21C128.456 25.21 127.854 25.035 127.355 24.685C126.856 24.3303 126.473 23.852 126.207 23.25C125.941 22.648 125.808 21.969 125.808 21.213C125.808 20.4617 125.939 19.785 126.2 19.183C126.466 18.581 126.846 18.105 127.341 17.755C127.836 17.405 128.428 17.23 129.119 17.23C129.828 17.23 130.426 17.4027 130.911 17.748C131.396 18.0933 131.763 18.567 132.01 19.169C132.262 19.7663 132.388 20.4477 132.388 21.213C132.388 21.9643 132.264 22.6433 132.017 23.25C131.77 23.852 131.406 24.3303 130.925 24.685C130.444 25.035 129.856 25.21 129.161 25.21ZM129.266 24.251C129.803 24.251 130.246 24.1203 130.596 23.859C130.946 23.5977 131.207 23.2383 131.38 22.781C131.553 22.319 131.639 21.7963 131.639 21.213C131.639 20.6203 131.553 20.0977 131.38 19.645C131.207 19.1877 130.946 18.8307 130.596 18.574C130.251 18.3173 129.814 18.189 129.287 18.189C128.746 18.189 128.298 18.322 127.943 18.588C127.588 18.854 127.325 19.2157 127.152 19.673C126.984 20.1303 126.9 20.6437 126.9 21.213C126.9 21.787 126.986 22.305 127.159 22.767C127.336 23.2243 127.6 23.586 127.95 23.852C128.3 24.118 128.739 24.251 129.266 24.251Z" fill="white"/>
<rect x="177.75" y="0.25" width="55.5" height="38.5" rx="19.25" fill="#0F0F0F"/>
<rect x="177.75" y="0.25" width="55.5" height="38.5" rx="19.25" stroke="#0DA382" stroke-width="0.5"/>
<path d="M197.042 25L193.57 14.92H194.641L197.714 23.831L200.808 14.92H201.879L198.407 25H197.042ZM206.156 25.21C205.451 25.21 204.816 25.0933 204.252 24.86C203.692 24.622 203.227 24.286 202.859 23.852C202.495 23.418 202.257 22.9023 202.145 22.305L203.195 22.13C203.363 22.7833 203.717 23.2967 204.259 23.67C204.8 24.0387 205.446 24.223 206.198 24.223C206.692 24.223 207.136 24.146 207.528 23.992C207.92 23.8333 208.228 23.6093 208.452 23.32C208.676 23.0307 208.788 22.6877 208.788 22.291C208.788 22.0297 208.741 21.808 208.648 21.626C208.554 21.4393 208.431 21.2853 208.277 21.164C208.123 21.0427 207.955 20.9423 207.773 20.863C207.591 20.779 207.413 20.7113 207.241 20.66L204.686 19.897C204.378 19.8083 204.093 19.6963 203.832 19.561C203.57 19.421 203.342 19.2553 203.146 19.064C202.954 18.868 202.805 18.6393 202.698 18.378C202.59 18.1167 202.537 17.818 202.537 17.482C202.537 16.9127 202.686 16.4203 202.985 16.005C203.283 15.5897 203.692 15.27 204.21 15.046C204.728 14.822 205.318 14.7123 205.981 14.717C206.653 14.717 207.252 14.836 207.78 15.074C208.312 15.312 208.75 15.6527 209.096 16.096C209.441 16.5347 209.67 17.055 209.782 17.657L208.704 17.853C208.634 17.4143 208.473 17.034 208.221 16.712C207.969 16.39 207.647 16.1427 207.255 15.97C206.867 15.7927 206.44 15.7017 205.974 15.697C205.521 15.697 205.117 15.774 204.763 15.928C204.413 16.0773 204.135 16.2827 203.93 16.544C203.724 16.8053 203.622 17.104 203.622 17.44C203.622 17.7807 203.715 18.0537 203.902 18.259C204.093 18.4643 204.326 18.6253 204.602 18.742C204.882 18.8587 205.152 18.9543 205.414 19.029L207.388 19.61C207.593 19.666 207.833 19.7477 208.109 19.855C208.389 19.9577 208.659 20.107 208.921 20.303C209.187 20.4943 209.406 20.7463 209.579 21.059C209.751 21.3717 209.838 21.7683 209.838 22.249C209.838 22.7157 209.744 23.1333 209.558 23.502C209.376 23.8707 209.117 24.181 208.781 24.433C208.449 24.685 208.06 24.8763 207.612 25.007C207.168 25.1423 206.683 25.21 206.156 25.21ZM211.423 25V14.92H212.452V24.013H217.24V25H211.423Z" fill="white"/>
<rect x="15.75" y="61.25" width="144.5" height="38.5" rx="19.25" fill="#0F0F0F"/>
<rect x="15.75" y="61.25" width="144.5" height="38.5" rx="19.25" stroke="#0DA382" stroke-width="0.5"/>
<path d="M36.477 74.73H35.595L36.428 72.56H37.31L36.477 74.73ZM31.78 86L35.252 75.92H36.617L40.089 86H39.018L35.721 76.494H36.127L32.851 86H31.78ZM33.327 83.557V82.591H38.535V83.557H33.327ZM41.353 86V78.44H42.277V80.26L42.095 80.022C42.179 79.798 42.2887 79.5927 42.424 79.406C42.5594 79.2147 42.7064 79.0583 42.865 78.937C43.061 78.7643 43.2897 78.6337 43.551 78.545C43.8124 78.4517 44.076 78.398 44.342 78.384C44.608 78.3653 44.8507 78.384 45.07 78.44V79.406C44.7947 79.336 44.4937 79.3197 44.167 79.357C43.8404 79.3943 43.5394 79.525 43.264 79.749C43.012 79.945 42.823 80.1807 42.697 80.456C42.571 80.7267 42.487 81.016 42.445 81.324C42.403 81.6273 42.382 81.9283 42.382 82.227V86H41.353ZM49.4603 86.21C48.7229 86.21 48.0836 86.0467 47.5423 85.72C47.0056 85.3933 46.5879 84.9337 46.2893 84.341C45.9906 83.7483 45.8413 83.053 45.8413 82.255C45.8413 81.429 45.9883 80.715 46.2823 80.113C46.5763 79.511 46.9893 79.0467 47.5213 78.72C48.0579 78.3933 48.6903 78.23 49.4183 78.23C50.1649 78.23 50.8019 78.4027 51.3293 78.748C51.8566 79.0887 52.2556 79.5787 52.5263 80.218C52.7969 80.8573 52.9206 81.6203 52.8973 82.507H51.8473V82.143C51.8286 81.163 51.6163 80.4233 51.2103 79.924C50.8089 79.4247 50.2209 79.175 49.4463 79.175C48.6343 79.175 48.0113 79.4387 47.5773 79.966C47.1479 80.4933 46.9333 81.2447 46.9333 82.22C46.9333 83.172 47.1479 83.9117 47.5773 84.439C48.0113 84.9617 48.6249 85.223 49.4183 85.223C49.9596 85.223 50.4309 85.0993 50.8323 84.852C51.2383 84.6 51.5579 84.2383 51.7913 83.767L52.7503 84.138C52.4516 84.796 52.0106 85.307 51.4273 85.671C50.8486 86.0303 50.1929 86.21 49.4603 86.21ZM46.5693 82.507V81.646H52.3443V82.507H46.5693ZM56.477 86.21C55.9077 86.21 55.4293 86.1073 55.042 85.902C54.6593 85.6967 54.3723 85.4237 54.181 85.083C53.9897 84.7423 53.894 84.3713 53.894 83.97C53.894 83.5593 53.9757 83.2093 54.139 82.92C54.307 82.626 54.5333 82.3857 54.818 82.199C55.1073 82.0123 55.441 81.87 55.819 81.772C56.2017 81.6787 56.624 81.597 57.086 81.527C57.5527 81.4523 58.0077 81.3893 58.451 81.338C58.899 81.282 59.291 81.2283 59.627 81.177L59.263 81.401C59.277 80.6543 59.1323 80.1013 58.829 79.742C58.5257 79.3827 57.9983 79.203 57.247 79.203C56.729 79.203 56.2903 79.3197 55.931 79.553C55.5763 79.7863 55.3267 80.155 55.182 80.659L54.181 80.365C54.3537 79.6883 54.7013 79.1633 55.224 78.79C55.7467 78.4167 56.4257 78.23 57.261 78.23C57.9517 78.23 58.5373 78.3607 59.018 78.622C59.5033 78.8787 59.8463 79.252 60.047 79.742C60.1403 79.9613 60.201 80.2063 60.229 80.477C60.257 80.7477 60.271 81.023 60.271 81.303V86H59.354V84.103L59.62 84.215C59.3633 84.8637 58.9643 85.3583 58.423 85.699C57.8817 86.0397 57.233 86.21 56.477 86.21ZM56.596 85.321C57.0767 85.321 57.4967 85.2347 57.856 85.062C58.2153 84.8893 58.5047 84.6537 58.724 84.355C58.9433 84.0517 59.0857 83.711 59.151 83.333C59.207 83.0903 59.2373 82.8243 59.242 82.535C59.2467 82.241 59.249 82.0217 59.249 81.877L59.641 82.08C59.291 82.1267 58.9107 82.1733 58.5 82.22C58.094 82.2667 57.6927 82.3203 57.296 82.381C56.904 82.4417 56.5493 82.514 56.232 82.598C56.0173 82.6587 55.8097 82.745 55.609 82.857C55.4083 82.9643 55.2427 83.109 55.112 83.291C54.986 83.473 54.923 83.6993 54.923 83.97C54.923 84.1893 54.9767 84.4017 55.084 84.607C55.196 84.8123 55.3733 84.9827 55.616 85.118C55.8633 85.2533 56.19 85.321 56.596 85.321ZM67.829 86.21C67.1243 86.21 66.5223 86.035 66.023 85.685C65.5237 85.3303 65.141 84.852 64.875 84.25C64.609 83.648 64.476 82.969 64.476 82.213C64.476 81.4617 64.6067 80.785 64.868 80.183C65.134 79.581 65.5143 79.105 66.009 78.755C66.5037 78.405 67.0963 78.23 67.787 78.23C68.4963 78.23 69.0937 78.4027 69.579 78.748C70.0643 79.0933 70.4307 79.567 70.678 80.169C70.93 80.7663 71.056 81.4477 71.056 82.213C71.056 82.9643 70.9323 83.6433 70.685 84.25C70.4377 84.852 70.0737 85.3303 69.593 85.685C69.1123 86.035 68.5243 86.21 67.829 86.21ZM67.934 85.251C68.4707 85.251 68.914 85.1203 69.264 84.859C69.614 84.5977 69.8753 84.2383 70.048 83.781C70.2207 83.319 70.307 82.7963 70.307 82.213C70.307 81.6203 70.2207 81.0977 70.048 80.645C69.8753 80.1877 69.614 79.8307 69.264 79.574C68.9187 79.3173 68.4823 79.189 67.955 79.189C67.4137 79.189 66.9657 79.322 66.611 79.588C66.2563 79.854 65.9927 80.2157 65.82 80.673C65.652 81.1303 65.568 81.6437 65.568 82.213C65.568 82.787 65.6543 83.305 65.827 83.767C66.0043 84.2243 66.268 84.586 66.618 84.852C66.968 85.118 67.4067 85.251 67.934 85.251ZM70.307 86V80.309H70.195V75.92H71.231V86H70.307ZM76.3938 86.21C75.6565 86.21 75.0172 86.0467 74.4758 85.72C73.9392 85.3933 73.5215 84.9337 73.2228 84.341C72.9242 83.7483 72.7748 83.053 72.7748 82.255C72.7748 81.429 72.9218 80.715 73.2158 80.113C73.5098 79.511 73.9228 79.0467 74.4548 78.72C74.9915 78.3933 75.6238 78.23 76.3518 78.23C77.0985 78.23 77.7355 78.4027 78.2628 78.748C78.7902 79.0887 79.1892 79.5787 79.4598 80.218C79.7305 80.8573 79.8542 81.6203 79.8308 82.507H78.7808V82.143C78.7622 81.163 78.5498 80.4233 78.1438 79.924C77.7425 79.4247 77.1545 79.175 76.3798 79.175C75.5678 79.175 74.9448 79.4387 74.5108 79.966C74.0815 80.4933 73.8668 81.2447 73.8668 82.22C73.8668 83.172 74.0815 83.9117 74.5108 84.439C74.9448 84.9617 75.5585 85.223 76.3518 85.223C76.8932 85.223 77.3645 85.0993 77.7658 84.852C78.1718 84.6 78.4915 84.2383 78.7248 83.767L79.6838 84.138C79.3852 84.796 78.9442 85.307 78.3608 85.671C77.7822 86.0303 77.1265 86.21 76.3938 86.21ZM73.5028 82.507V81.646H79.2778V82.507H73.5028ZM84.187 86V75.92H85.132L89.094 84.397L93.035 75.92H93.994V85.993H93.014V78.216L89.423 86H88.758L85.174 78.216V86H84.187ZM99.1575 86.21C98.4202 86.21 97.7808 86.0467 97.2395 85.72C96.7028 85.3933 96.2852 84.9337 95.9865 84.341C95.6878 83.7483 95.5385 83.053 95.5385 82.255C95.5385 81.429 95.6855 80.715 95.9795 80.113C96.2735 79.511 96.6865 79.0467 97.2185 78.72C97.7552 78.3933 98.3875 78.23 99.1155 78.23C99.8622 78.23 100.499 78.4027 101.027 78.748C101.554 79.0887 101.953 79.5787 102.224 80.218C102.494 80.8573 102.618 81.6203 102.595 82.507H101.545V82.143C101.526 81.163 101.314 80.4233 100.908 79.924C100.506 79.4247 99.9182 79.175 99.1435 79.175C98.3315 79.175 97.7085 79.4387 97.2745 79.966C96.8452 80.4933 96.6305 81.2447 96.6305 82.22C96.6305 83.172 96.8452 83.9117 97.2745 84.439C97.7085 84.9617 98.3222 85.223 99.1155 85.223C99.6568 85.223 100.128 85.0993 100.53 84.852C100.936 84.6 101.255 84.2383 101.489 83.767L102.448 84.138C102.149 84.796 101.708 85.307 101.125 85.671C100.546 86.0303 99.8902 86.21 99.1575 86.21ZM96.2665 82.507V81.646H102.042V82.507H96.2665ZM112.959 86L112.966 81.037C112.966 80.4537 112.803 79.9963 112.476 79.665C112.154 79.329 111.743 79.161 111.244 79.161C110.959 79.161 110.682 79.2263 110.411 79.357C110.14 79.4877 109.916 79.6977 109.739 79.987C109.566 80.2763 109.48 80.6543 109.48 81.121L108.871 80.946C108.857 80.4047 108.962 79.931 109.186 79.525C109.415 79.119 109.727 78.804 110.124 78.58C110.525 78.3513 110.978 78.237 111.482 78.237C112.243 78.237 112.852 78.4727 113.309 78.944C113.766 79.4107 113.995 80.043 113.995 80.841L113.988 86H112.959ZM103.936 86V78.44H104.86V80.302H104.972V86H103.936ZM108.458 86L108.465 81.107C108.465 80.505 108.304 80.0313 107.982 79.686C107.665 79.336 107.245 79.161 106.722 79.161C106.199 79.161 105.777 79.3407 105.455 79.7C105.133 80.0547 104.972 80.5283 104.972 81.121L104.356 80.785C104.356 80.2997 104.47 79.8657 104.699 79.483C104.928 79.0957 105.24 78.7923 105.637 78.573C106.034 78.349 106.484 78.237 106.988 78.237C107.469 78.237 107.896 78.3397 108.269 78.545C108.647 78.7503 108.943 79.049 109.158 79.441C109.373 79.833 109.48 80.309 109.48 80.869L109.473 86H108.458ZM119.205 86.21C118.51 86.21 117.922 86.035 117.441 85.685C116.96 85.3303 116.596 84.852 116.349 84.25C116.102 83.6433 115.978 82.9643 115.978 82.213C115.978 81.4477 116.102 80.7663 116.349 80.169C116.601 79.567 116.97 79.0933 117.455 78.748C117.94 78.4027 118.538 78.23 119.247 78.23C119.938 78.23 120.53 78.405 121.025 78.755C121.52 79.105 121.898 79.581 122.159 80.183C122.425 80.785 122.558 81.4617 122.558 82.213C122.558 82.969 122.425 83.648 122.159 84.25C121.893 84.852 121.51 85.3303 121.011 85.685C120.512 86.035 119.91 86.21 119.205 86.21ZM115.803 86V75.92H116.839V80.309H116.727V86H115.803ZM119.1 85.251C119.627 85.251 120.066 85.118 120.416 84.852C120.766 84.586 121.027 84.2243 121.2 83.767C121.377 83.305 121.466 82.787 121.466 82.213C121.466 81.6437 121.38 81.1303 121.207 80.673C121.034 80.2157 120.771 79.854 120.416 79.588C120.066 79.322 119.62 79.189 119.079 79.189C118.552 79.189 118.113 79.3173 117.763 79.574C117.418 79.8307 117.159 80.1877 116.986 80.645C116.813 81.0977 116.727 81.6203 116.727 82.213C116.727 82.7963 116.813 83.319 116.986 83.781C117.159 84.2383 117.42 84.5977 117.77 84.859C118.12 85.1203 118.563 85.251 119.1 85.251ZM124.095 86V78.44H125.019V80.26L124.837 80.022C124.921 79.798 125.031 79.5927 125.166 79.406C125.302 79.2147 125.449 79.0583 125.607 78.937C125.803 78.7643 126.032 78.6337 126.293 78.545C126.555 78.4517 126.818 78.398 127.084 78.384C127.35 78.3653 127.593 78.384 127.812 78.44V79.406C127.537 79.336 127.236 79.3197 126.909 79.357C126.583 79.3943 126.282 79.525 126.006 79.749C125.754 79.945 125.565 80.1807 125.439 80.456C125.313 80.7267 125.229 81.016 125.187 81.324C125.145 81.6273 125.124 81.9283 125.124 82.227V86H124.095ZM132.16 86.21C131.409 86.21 130.767 86.0397 130.235 85.699C129.703 85.3583 129.295 84.887 129.01 84.285C128.726 83.683 128.583 82.9923 128.583 82.213C128.583 81.4197 128.728 80.7243 129.017 80.127C129.307 79.5297 129.717 79.0653 130.249 78.734C130.786 78.398 131.423 78.23 132.16 78.23C132.916 78.23 133.56 78.4003 134.092 78.741C134.629 79.077 135.037 79.546 135.317 80.148C135.602 80.7453 135.744 81.4337 135.744 82.213C135.744 83.0063 135.602 83.704 135.317 84.306C135.033 84.9033 134.622 85.37 134.085 85.706C133.549 86.042 132.907 86.21 132.16 86.21ZM132.16 85.223C133 85.223 133.626 84.9453 134.036 84.39C134.447 83.83 134.652 83.1043 134.652 82.213C134.652 81.2983 134.445 80.5703 134.029 80.029C133.619 79.4877 132.996 79.217 132.16 79.217C131.596 79.217 131.129 79.3453 130.76 79.602C130.396 79.854 130.123 80.2063 129.941 80.659C129.764 81.107 129.675 81.625 129.675 82.213C129.675 83.123 129.885 83.8533 130.305 84.404C130.725 84.95 131.344 85.223 132.16 85.223ZM140.041 86.203C139.155 86.203 138.424 86.0117 137.85 85.629C137.281 85.2463 136.931 84.7143 136.8 84.033L137.85 83.858C137.962 84.2873 138.217 84.6303 138.613 84.887C139.015 85.139 139.509 85.265 140.097 85.265C140.671 85.265 141.124 85.146 141.455 84.908C141.787 84.6653 141.952 84.3363 141.952 83.921C141.952 83.6877 141.899 83.4987 141.791 83.354C141.689 83.2047 141.476 83.067 141.154 82.941C140.832 82.815 140.352 82.6657 139.712 82.493C139.026 82.3063 138.49 82.1197 138.102 81.933C137.715 81.7463 137.44 81.5317 137.276 81.289C137.113 81.0417 137.031 80.7407 137.031 80.386C137.031 79.9567 137.153 79.581 137.395 79.259C137.638 78.9323 137.974 78.6803 138.403 78.503C138.833 78.321 139.332 78.23 139.901 78.23C140.471 78.23 140.979 78.3233 141.427 78.51C141.88 78.692 142.244 78.9487 142.519 79.28C142.795 79.6113 142.958 79.9963 143.009 80.435L141.959 80.624C141.889 80.1807 141.668 79.8307 141.294 79.574C140.926 79.3127 140.457 79.1773 139.887 79.168C139.351 79.154 138.914 79.2567 138.578 79.476C138.242 79.6907 138.074 79.9777 138.074 80.337C138.074 80.5377 138.135 80.7103 138.256 80.855C138.378 80.995 138.597 81.128 138.914 81.254C139.236 81.38 139.694 81.5177 140.286 81.667C140.982 81.8443 141.528 82.031 141.924 82.227C142.321 82.423 142.603 82.654 142.771 82.92C142.939 83.186 143.023 83.515 143.023 83.907C143.023 84.621 142.757 85.1833 142.225 85.594C141.698 86 140.97 86.203 140.041 86.203Z" fill="white"/>
<rect x="184.75" y="61.25" width="99.5" height="38.5" rx="19.25" fill="#0F0F0F"/>
<rect x="184.75" y="61.25" width="99.5" height="38.5" rx="19.25" stroke="#0DA382" stroke-width="0.5"/>
<path d="M205.519 86.21C204.81 86.21 204.17 86.0863 203.601 85.839C203.032 85.5917 202.546 85.2393 202.145 84.782C201.748 84.3247 201.445 83.774 201.235 83.13C201.025 82.4813 200.92 81.758 200.92 80.96C200.92 79.9053 201.102 78.986 201.466 78.202C201.835 77.4133 202.362 76.802 203.048 76.368C203.734 75.934 204.558 75.717 205.519 75.717C206.592 75.717 207.465 75.969 208.137 76.473C208.814 76.9723 209.285 77.6443 209.551 78.489L208.515 78.741C208.296 78.125 207.934 77.6327 207.43 77.264C206.931 76.8953 206.308 76.711 205.561 76.711C204.772 76.7063 204.117 76.8837 203.594 77.243C203.071 77.5977 202.677 78.097 202.411 78.741C202.15 79.3803 202.017 80.12 202.012 80.96C202.007 81.8 202.136 82.5397 202.397 83.179C202.663 83.8137 203.06 84.313 203.587 84.677C204.114 85.0363 204.772 85.2183 205.561 85.223C206.284 85.223 206.882 85.083 207.353 84.803C207.824 84.523 208.181 84.1217 208.424 83.599C208.671 83.0763 208.811 82.458 208.844 81.744H206.52V80.862H209.922C209.936 80.9693 209.943 81.0837 209.943 81.205C209.948 81.3217 209.95 81.4057 209.95 81.457C209.95 82.367 209.787 83.1813 209.46 83.9C209.133 84.614 208.641 85.1787 207.983 85.594C207.33 86.0047 206.508 86.21 205.519 86.21ZM214.55 86.21C213.813 86.21 213.173 86.0467 212.632 85.72C212.095 85.3933 211.678 84.9337 211.379 84.341C211.08 83.7483 210.931 83.053 210.931 82.255C210.931 81.429 211.078 80.715 211.372 80.113C211.666 79.511 212.079 79.0467 212.611 78.72C213.148 78.3933 213.78 78.23 214.508 78.23C215.255 78.23 215.892 78.4027 216.419 78.748C216.946 79.0887 217.345 79.5787 217.616 80.218C217.887 80.8573 218.01 81.6203 217.987 82.507H216.937V82.143C216.918 81.163 216.706 80.4233 216.3 79.924C215.899 79.4247 215.311 79.175 214.536 79.175C213.724 79.175 213.101 79.4387 212.667 79.966C212.238 80.4933 212.023 81.2447 212.023 82.22C212.023 83.172 212.238 83.9117 212.667 84.439C213.101 84.9617 213.715 85.223 214.508 85.223C215.049 85.223 215.521 85.0993 215.922 84.852C216.328 84.6 216.648 84.2383 216.881 83.767L217.84 84.138C217.541 84.796 217.1 85.307 216.517 85.671C215.938 86.0303 215.283 86.21 214.55 86.21ZM211.659 82.507V81.646H217.434V82.507H211.659ZM219.541 86V78.44H220.465V80.26L220.283 80.022C220.367 79.798 220.476 79.5927 220.612 79.406C220.747 79.2147 220.894 79.0583 221.053 78.937C221.249 78.7643 221.477 78.6337 221.739 78.545C222 78.4517 222.264 78.398 222.53 78.384C222.796 78.3653 223.038 78.384 223.258 78.44V79.406C222.982 79.336 222.681 79.3197 222.355 79.357C222.028 79.3943 221.727 79.525 221.452 79.749C221.2 79.945 221.011 80.1807 220.885 80.456C220.759 80.7267 220.675 81.016 220.633 81.324C220.591 81.6273 220.57 81.9283 220.57 82.227V86H219.541ZM226.461 86.21C225.892 86.21 225.414 86.1073 225.026 85.902C224.644 85.6967 224.357 85.4237 224.165 85.083C223.974 84.7423 223.878 84.3713 223.878 83.97C223.878 83.5593 223.96 83.2093 224.123 82.92C224.291 82.626 224.518 82.3857 224.802 82.199C225.092 82.0123 225.425 81.87 225.803 81.772C226.186 81.6787 226.608 81.597 227.07 81.527C227.537 81.4523 227.992 81.3893 228.435 81.338C228.883 81.282 229.275 81.2283 229.611 81.177L229.247 81.401C229.261 80.6543 229.117 80.1013 228.813 79.742C228.51 79.3827 227.983 79.203 227.231 79.203C226.713 79.203 226.275 79.3197 225.915 79.553C225.561 79.7863 225.311 80.155 225.166 80.659L224.165 80.365C224.338 79.6883 224.686 79.1633 225.208 78.79C225.731 78.4167 226.41 78.23 227.245 78.23C227.936 78.23 228.522 78.3607 229.002 78.622C229.488 78.8787 229.831 79.252 230.031 79.742C230.125 79.9613 230.185 80.2063 230.213 80.477C230.241 80.7477 230.255 81.023 230.255 81.303V86H229.338V84.103L229.604 84.215C229.348 84.8637 228.949 85.3583 228.407 85.699C227.866 86.0397 227.217 86.21 226.461 86.21ZM226.58 85.321C227.061 85.321 227.481 85.2347 227.84 85.062C228.2 84.8893 228.489 84.6537 228.708 84.355C228.928 84.0517 229.07 83.711 229.135 83.333C229.191 83.0903 229.222 82.8243 229.226 82.535C229.231 82.241 229.233 82.0217 229.233 81.877L229.625 82.08C229.275 82.1267 228.895 82.1733 228.484 82.22C228.078 82.2667 227.677 82.3203 227.28 82.381C226.888 82.4417 226.534 82.514 226.216 82.598C226.002 82.6587 225.794 82.745 225.593 82.857C225.393 82.9643 225.227 83.109 225.096 83.291C224.97 83.473 224.907 83.6993 224.907 83.97C224.907 84.1893 224.961 84.4017 225.068 84.607C225.18 84.8123 225.358 84.9827 225.6 85.118C225.848 85.2533 226.174 85.321 226.58 85.321ZM235.011 86.21C234.306 86.21 233.704 86.035 233.205 85.685C232.705 85.3303 232.323 84.852 232.057 84.25C231.791 83.648 231.658 82.969 231.658 82.213C231.658 81.4617 231.788 80.785 232.05 80.183C232.316 79.581 232.696 79.105 233.191 78.755C233.685 78.405 234.278 78.23 234.969 78.23C235.678 78.23 236.275 78.4027 236.761 78.748C237.246 79.0933 237.612 79.567 237.86 80.169C238.112 80.7663 238.238 81.4477 238.238 82.213C238.238 82.9643 238.114 83.6433 237.867 84.25C237.619 84.852 237.255 85.3303 236.775 85.685C236.294 86.035 235.706 86.21 235.011 86.21ZM235.116 85.251C235.652 85.251 236.096 85.1203 236.446 84.859C236.796 84.5977 237.057 84.2383 237.23 83.781C237.402 83.319 237.489 82.7963 237.489 82.213C237.489 81.6203 237.402 81.0977 237.23 80.645C237.057 80.1877 236.796 79.8307 236.446 79.574C236.1 79.3173 235.664 79.189 235.137 79.189C234.595 79.189 234.147 79.322 233.793 79.588C233.438 79.854 233.174 80.2157 233.002 80.673C232.834 81.1303 232.75 81.6437 232.75 82.213C232.75 82.787 232.836 83.305 233.009 83.767C233.186 84.2243 233.45 84.586 233.8 84.852C234.15 85.118 234.588 85.251 235.116 85.251ZM237.489 86V80.309H237.377V75.92H238.413V86H237.489ZM243.533 86.21C242.782 86.21 242.14 86.0397 241.608 85.699C241.076 85.3583 240.668 84.887 240.383 84.285C240.099 83.683 239.956 82.9923 239.956 82.213C239.956 81.4197 240.101 80.7243 240.39 80.127C240.68 79.5297 241.09 79.0653 241.622 78.734C242.159 78.398 242.796 78.23 243.533 78.23C244.289 78.23 244.933 78.4003 245.465 78.741C246.002 79.077 246.41 79.546 246.69 80.148C246.975 80.7453 247.117 81.4337 247.117 82.213C247.117 83.0063 246.975 83.704 246.69 84.306C246.406 84.9033 245.995 85.37 245.458 85.706C244.922 86.042 244.28 86.21 243.533 86.21ZM243.533 85.223C244.373 85.223 244.999 84.9453 245.409 84.39C245.82 83.83 246.025 83.1043 246.025 82.213C246.025 81.2983 245.818 80.5703 245.402 80.029C244.992 79.4877 244.369 79.217 243.533 79.217C242.969 79.217 242.502 79.3453 242.133 79.602C241.769 79.854 241.496 80.2063 241.314 80.659C241.137 81.107 241.048 81.625 241.048 82.213C241.048 83.123 241.258 83.8533 241.678 84.404C242.098 84.95 242.717 85.223 243.533 85.223ZM248.662 86V78.44H249.586V80.26L249.404 80.022C249.488 79.798 249.597 79.5927 249.733 79.406C249.868 79.2147 250.015 79.0583 250.174 78.937C250.37 78.7643 250.598 78.6337 250.86 78.545C251.121 78.4517 251.385 78.398 251.651 78.384C251.917 78.3653 252.159 78.384 252.379 78.44V79.406C252.103 79.336 251.802 79.3197 251.476 79.357C251.149 79.3943 250.848 79.525 250.573 79.749C250.321 79.945 250.132 80.1807 250.006 80.456C249.88 80.7267 249.796 81.016 249.754 81.324C249.712 81.6273 249.691 81.9283 249.691 82.227V86H248.662ZM256.769 86.21C256.032 86.21 255.392 86.0467 254.851 85.72C254.314 85.3933 253.897 84.9337 253.598 84.341C253.299 83.7483 253.15 83.053 253.15 82.255C253.15 81.429 253.297 80.715 253.591 80.113C253.885 79.511 254.298 79.0467 254.83 78.72C255.367 78.3933 255.999 78.23 256.727 78.23C257.474 78.23 258.111 78.4027 258.638 78.748C259.165 79.0887 259.564 79.5787 259.835 80.218C260.106 80.8573 260.229 81.6203 260.206 82.507H259.156V82.143C259.137 81.163 258.925 80.4233 258.519 79.924C258.118 79.4247 257.53 79.175 256.755 79.175C255.943 79.175 255.32 79.4387 254.886 79.966C254.457 80.4933 254.242 81.2447 254.242 82.22C254.242 83.172 254.457 83.9117 254.886 84.439C255.32 84.9617 255.934 85.223 256.727 85.223C257.268 85.223 257.74 85.0993 258.141 84.852C258.547 84.6 258.867 84.2383 259.1 83.767L260.059 84.138C259.76 84.796 259.319 85.307 258.736 85.671C258.157 86.0303 257.502 86.21 256.769 86.21ZM253.878 82.507V81.646H259.653V82.507H253.878ZM264.58 86.203C263.694 86.203 262.963 86.0117 262.389 85.629C261.82 85.2463 261.47 84.7143 261.339 84.033L262.389 83.858C262.501 84.2873 262.756 84.6303 263.152 84.887C263.554 85.139 264.048 85.265 264.636 85.265C265.21 85.265 265.663 85.146 265.994 84.908C266.326 84.6653 266.491 84.3363 266.491 83.921C266.491 83.6877 266.438 83.4987 266.33 83.354C266.228 83.2047 266.015 83.067 265.693 82.941C265.371 82.815 264.891 82.6657 264.251 82.493C263.565 82.3063 263.029 82.1197 262.641 81.933C262.254 81.7463 261.979 81.5317 261.815 81.289C261.652 81.0417 261.57 80.7407 261.57 80.386C261.57 79.9567 261.692 79.581 261.934 79.259C262.177 78.9323 262.513 78.6803 262.942 78.503C263.372 78.321 263.871 78.23 264.44 78.23C265.01 78.23 265.518 78.3233 265.966 78.51C266.419 78.692 266.783 78.9487 267.058 79.28C267.334 79.6113 267.497 79.9963 267.548 80.435L266.498 80.624C266.428 80.1807 266.207 79.8307 265.833 79.574C265.465 79.3127 264.996 79.1773 264.426 79.168C263.89 79.154 263.453 79.2567 263.117 79.476C262.781 79.6907 262.613 79.9777 262.613 80.337C262.613 80.5377 262.674 80.7103 262.795 80.855C262.917 80.995 263.136 81.128 263.453 81.254C263.775 81.38 264.233 81.5177 264.825 81.667C265.521 81.8443 266.067 82.031 266.463 82.227C266.86 82.423 267.142 82.654 267.31 82.92C267.478 83.186 267.562 83.515 267.562 83.907C267.562 84.621 267.296 85.1833 266.764 85.594C266.237 86 265.509 86.203 264.58 86.203Z" fill="white"/>
<rect x="10.75" y="122.25" width="44.5" height="38.5" rx="19.25" fill="#0F0F0F"/>
<rect x="10.75" y="122.25" width="44.5" height="38.5" rx="19.25" stroke="#0DA382" stroke-width="0.5"/>
<path d="M26.78 147L30.252 136.92H31.617L35.089 147H34.018L30.721 137.494H31.127L27.851 147H26.78ZM28.327 144.557V143.591H33.535V144.557H28.327ZM36.493 147V136.92H37.522V147H36.493Z" fill="white"/>
<rect x="106.75" y="122.25" width="152.5" height="38.5" rx="19.25" fill="#0F0F0F"/>
<rect x="106.75" y="122.25" width="152.5" height="38.5" rx="19.25" stroke="#0DA382" stroke-width="0.5"/>
<path d="M123.48 147V136.92H127.372C127.47 136.92 127.58 136.925 127.701 136.934C127.827 136.939 127.953 136.953 128.079 136.976C128.606 137.055 129.052 137.24 129.416 137.529C129.785 137.814 130.062 138.173 130.249 138.607C130.44 139.041 130.536 139.522 130.536 140.049C130.536 140.572 130.44 141.05 130.249 141.484C130.058 141.918 129.778 142.28 129.409 142.569C129.045 142.854 128.602 143.036 128.079 143.115C127.953 143.134 127.827 143.148 127.701 143.157C127.58 143.166 127.47 143.171 127.372 143.171H124.509V147H123.48ZM124.509 142.191H127.344C127.428 142.191 127.526 142.186 127.638 142.177C127.75 142.168 127.86 142.151 127.967 142.128C128.312 142.053 128.595 141.911 128.814 141.701C129.038 141.491 129.204 141.241 129.311 140.952C129.423 140.663 129.479 140.362 129.479 140.049C129.479 139.736 129.423 139.435 129.311 139.146C129.204 138.852 129.038 138.6 128.814 138.39C128.595 138.18 128.312 138.038 127.967 137.963C127.86 137.94 127.75 137.926 127.638 137.921C127.526 137.912 127.428 137.907 127.344 137.907H124.509V142.191ZM135.031 138.25H134.149L134.989 136.08H135.871L135.031 138.25ZM133.764 147.21C133.195 147.21 132.716 147.107 132.329 146.902C131.946 146.697 131.659 146.424 131.468 146.083C131.277 145.742 131.181 145.371 131.181 144.97C131.181 144.559 131.263 144.209 131.426 143.92C131.594 143.626 131.82 143.386 132.105 143.199C132.394 143.012 132.728 142.87 133.106 142.772C133.489 142.679 133.911 142.597 134.373 142.527C134.84 142.452 135.295 142.389 135.738 142.338C136.186 142.282 136.578 142.228 136.914 142.177L136.55 142.401C136.564 141.654 136.419 141.101 136.116 140.742C135.813 140.383 135.285 140.203 134.534 140.203C134.016 140.203 133.577 140.32 133.218 140.553C132.863 140.786 132.614 141.155 132.469 141.659L131.468 141.365C131.641 140.688 131.988 140.163 132.511 139.79C133.034 139.417 133.713 139.23 134.548 139.23C135.239 139.23 135.824 139.361 136.305 139.622C136.79 139.879 137.133 140.252 137.334 140.742C137.427 140.961 137.488 141.206 137.516 141.477C137.544 141.748 137.558 142.023 137.558 142.303V147H136.641V145.103L136.907 145.215C136.65 145.864 136.251 146.358 135.71 146.699C135.169 147.04 134.52 147.21 133.764 147.21ZM133.883 146.321C134.364 146.321 134.784 146.235 135.143 146.062C135.502 145.889 135.792 145.654 136.011 145.355C136.23 145.052 136.373 144.711 136.438 144.333C136.494 144.09 136.524 143.824 136.529 143.535C136.534 143.241 136.536 143.022 136.536 142.877L136.928 143.08C136.578 143.127 136.198 143.173 135.787 143.22C135.381 143.267 134.98 143.32 134.583 143.381C134.191 143.442 133.836 143.514 133.519 143.598C133.304 143.659 133.097 143.745 132.896 143.857C132.695 143.964 132.53 144.109 132.399 144.291C132.273 144.473 132.21 144.699 132.21 144.97C132.21 145.189 132.264 145.402 132.371 145.607C132.483 145.812 132.66 145.983 132.903 146.118C133.15 146.253 133.477 146.321 133.883 146.321ZM142.383 150.57C141.996 150.57 141.613 150.512 141.235 150.395C140.862 150.283 140.517 150.103 140.199 149.856C139.882 149.613 139.616 149.296 139.401 148.904L140.332 148.386C140.542 148.806 140.836 149.107 141.214 149.289C141.597 149.476 141.987 149.569 142.383 149.569C142.929 149.569 143.37 149.466 143.706 149.261C144.047 149.06 144.294 148.762 144.448 148.365C144.602 147.968 144.677 147.474 144.672 146.881V144.865H144.791V139.44H145.708V146.895C145.708 147.11 145.701 147.315 145.687 147.511C145.678 147.712 145.657 147.908 145.624 148.099C145.536 148.664 145.351 149.128 145.071 149.492C144.796 149.856 144.432 150.127 143.979 150.304C143.531 150.481 142.999 150.57 142.383 150.57ZM142.313 147.21C141.609 147.21 141.007 147.035 140.507 146.685C140.008 146.33 139.625 145.852 139.359 145.25C139.093 144.648 138.96 143.969 138.96 143.213C138.96 142.462 139.091 141.785 139.352 141.183C139.618 140.581 139.999 140.105 140.493 139.755C140.988 139.405 141.581 139.23 142.271 139.23C142.981 139.23 143.578 139.403 144.063 139.748C144.549 140.093 144.915 140.567 145.162 141.169C145.414 141.766 145.54 142.448 145.54 143.213C145.54 143.964 145.417 144.643 145.169 145.25C144.922 145.852 144.558 146.33 144.077 146.685C143.597 147.035 143.009 147.21 142.313 147.21ZM142.418 146.251C142.955 146.251 143.398 146.12 143.748 145.859C144.098 145.598 144.36 145.238 144.532 144.781C144.705 144.319 144.791 143.796 144.791 143.213C144.791 142.62 144.705 142.098 144.532 141.645C144.36 141.188 144.098 140.831 143.748 140.574C143.403 140.317 142.967 140.189 142.439 140.189C141.898 140.189 141.45 140.322 141.095 140.588C140.741 140.854 140.477 141.216 140.304 141.673C140.136 142.13 140.052 142.644 140.052 143.213C140.052 143.787 140.139 144.305 140.311 144.767C140.489 145.224 140.752 145.586 141.102 145.852C141.452 146.118 141.891 146.251 142.418 146.251ZM147.806 138.005V136.85H148.835V138.005H147.806ZM147.806 147V139.44H148.835V147H147.806ZM156.393 147V143.143C156.393 142.723 156.353 142.338 156.274 141.988C156.195 141.633 156.066 141.325 155.889 141.064C155.716 140.798 155.49 140.593 155.21 140.448C154.935 140.303 154.599 140.231 154.202 140.231C153.838 140.231 153.516 140.294 153.236 140.42C152.961 140.546 152.727 140.728 152.536 140.966C152.349 141.199 152.207 141.484 152.109 141.82C152.011 142.156 151.962 142.539 151.962 142.968L151.234 142.807C151.234 142.032 151.369 141.381 151.64 140.854C151.911 140.327 152.284 139.928 152.76 139.657C153.236 139.386 153.782 139.251 154.398 139.251C154.851 139.251 155.245 139.321 155.581 139.461C155.922 139.601 156.209 139.79 156.442 140.028C156.68 140.266 156.871 140.539 157.016 140.847C157.161 141.15 157.266 141.475 157.331 141.82C157.396 142.161 157.429 142.501 157.429 142.842V147H156.393ZM150.926 147V139.44H151.857V141.302H151.962V147H150.926ZM161.409 147.21C160.839 147.21 160.361 147.107 159.974 146.902C159.591 146.697 159.304 146.424 159.113 146.083C158.921 145.742 158.826 145.371 158.826 144.97C158.826 144.559 158.907 144.209 159.071 143.92C159.239 143.626 159.465 143.386 159.75 143.199C160.039 143.012 160.373 142.87 160.751 142.772C161.133 142.679 161.556 142.597 162.018 142.527C162.484 142.452 162.939 142.389 163.383 142.338C163.831 142.282 164.223 142.228 164.559 142.177L164.195 142.401C164.209 141.654 164.064 141.101 163.761 140.742C163.457 140.383 162.93 140.203 162.179 140.203C161.661 140.203 161.222 140.32 160.863 140.553C160.508 140.786 160.258 141.155 160.114 141.659L159.113 141.365C159.285 140.688 159.633 140.163 160.156 139.79C160.678 139.417 161.357 139.23 162.193 139.23C162.883 139.23 163.469 139.361 163.95 139.622C164.435 139.879 164.778 140.252 164.979 140.742C165.072 140.961 165.133 141.206 165.161 141.477C165.189 141.748 165.203 142.023 165.203 142.303V147H164.286V145.103L164.552 145.215C164.295 145.864 163.896 146.358 163.355 146.699C162.813 147.04 162.165 147.21 161.409 147.21ZM161.528 146.321C162.008 146.321 162.428 146.235 162.788 146.062C163.147 145.889 163.436 145.654 163.656 145.355C163.875 145.052 164.017 144.711 164.083 144.333C164.139 144.09 164.169 143.824 164.174 143.535C164.178 143.241 164.181 143.022 164.181 142.877L164.573 143.08C164.223 143.127 163.842 143.173 163.432 143.22C163.026 143.267 162.624 143.32 162.228 143.381C161.836 143.442 161.481 143.514 161.164 143.598C160.949 143.659 160.741 143.745 160.541 143.857C160.34 143.964 160.174 144.109 160.044 144.291C159.918 144.473 159.855 144.699 159.855 144.97C159.855 145.189 159.908 145.402 160.016 145.607C160.128 145.812 160.305 145.983 160.548 146.118C160.795 146.253 161.122 146.321 161.528 146.321ZM169.846 147.203C168.959 147.203 168.229 147.012 167.655 146.629C167.086 146.246 166.736 145.714 166.605 145.033L167.655 144.858C167.767 145.287 168.021 145.63 168.418 145.887C168.819 146.139 169.314 146.265 169.902 146.265C170.476 146.265 170.929 146.146 171.26 145.908C171.591 145.665 171.757 145.336 171.757 144.921C171.757 144.688 171.703 144.499 171.596 144.354C171.493 144.205 171.281 144.067 170.959 143.941C170.637 143.815 170.156 143.666 169.517 143.493C168.831 143.306 168.294 143.12 167.907 142.933C167.52 142.746 167.244 142.532 167.081 142.289C166.918 142.042 166.836 141.741 166.836 141.386C166.836 140.957 166.957 140.581 167.2 140.259C167.443 139.932 167.779 139.68 168.208 139.503C168.637 139.321 169.137 139.23 169.706 139.23C170.275 139.23 170.784 139.323 171.232 139.51C171.685 139.692 172.049 139.949 172.324 140.28C172.599 140.611 172.763 140.996 172.814 141.435L171.764 141.624C171.694 141.181 171.472 140.831 171.099 140.574C170.73 140.313 170.261 140.177 169.692 140.168C169.155 140.154 168.719 140.257 168.383 140.476C168.047 140.691 167.879 140.978 167.879 141.337C167.879 141.538 167.94 141.71 168.061 141.855C168.182 141.995 168.402 142.128 168.719 142.254C169.041 142.38 169.498 142.518 170.091 142.667C170.786 142.844 171.332 143.031 171.729 143.227C172.126 143.423 172.408 143.654 172.576 143.92C172.744 144.186 172.828 144.515 172.828 144.907C172.828 145.621 172.562 146.183 172.03 146.594C171.503 147 170.775 147.203 169.846 147.203ZM180.116 147.21C179.411 147.21 178.809 147.035 178.31 146.685C177.811 146.33 177.428 145.852 177.162 145.25C176.896 144.648 176.763 143.969 176.763 143.213C176.763 142.462 176.894 141.785 177.155 141.183C177.421 140.581 177.801 140.105 178.296 139.755C178.791 139.405 179.383 139.23 180.074 139.23C180.783 139.23 181.381 139.403 181.866 139.748C182.351 140.093 182.718 140.567 182.965 141.169C183.217 141.766 183.343 142.448 183.343 143.213C183.343 143.964 183.219 144.643 182.972 145.25C182.725 145.852 182.361 146.33 181.88 146.685C181.399 147.035 180.811 147.21 180.116 147.21ZM180.221 146.251C180.758 146.251 181.201 146.12 181.551 145.859C181.901 145.598 182.162 145.238 182.335 144.781C182.508 144.319 182.594 143.796 182.594 143.213C182.594 142.62 182.508 142.098 182.335 141.645C182.162 141.188 181.901 140.831 181.551 140.574C181.206 140.317 180.769 140.189 180.242 140.189C179.701 140.189 179.253 140.322 178.898 140.588C178.543 140.854 178.28 141.216 178.107 141.673C177.939 142.13 177.855 142.644 177.855 143.213C177.855 143.787 177.941 144.305 178.114 144.767C178.291 145.224 178.555 145.586 178.905 145.852C179.255 146.118 179.694 146.251 180.221 146.251ZM182.594 147V141.309H182.482V136.92H183.518V147H182.594ZM188.681 147.21C187.944 147.21 187.304 147.047 186.763 146.72C186.226 146.393 185.809 145.934 185.51 145.341C185.211 144.748 185.062 144.053 185.062 143.255C185.062 142.429 185.209 141.715 185.503 141.113C185.797 140.511 186.21 140.047 186.742 139.72C187.279 139.393 187.911 139.23 188.639 139.23C189.386 139.23 190.023 139.403 190.55 139.748C191.077 140.089 191.476 140.579 191.747 141.218C192.018 141.857 192.141 142.62 192.118 143.507H191.068V143.143C191.049 142.163 190.837 141.423 190.431 140.924C190.03 140.425 189.442 140.175 188.667 140.175C187.855 140.175 187.232 140.439 186.798 140.966C186.369 141.493 186.154 142.245 186.154 143.22C186.154 144.172 186.369 144.912 186.798 145.439C187.232 145.962 187.846 146.223 188.639 146.223C189.18 146.223 189.652 146.099 190.053 145.852C190.459 145.6 190.779 145.238 191.012 144.767L191.971 145.138C191.672 145.796 191.231 146.307 190.648 146.671C190.069 147.03 189.414 147.21 188.681 147.21ZM185.79 143.507V142.646H191.565V143.507H185.79ZM199.036 147L195.564 136.92H196.635L199.708 145.831L202.802 136.92H203.873L200.401 147H199.036ZM207.288 147.21C206.551 147.21 205.912 147.047 205.37 146.72C204.834 146.393 204.416 145.934 204.117 145.341C203.819 144.748 203.669 144.053 203.669 143.255C203.669 142.429 203.816 141.715 204.11 141.113C204.404 140.511 204.817 140.047 205.349 139.72C205.886 139.393 206.518 139.23 207.246 139.23C207.993 139.23 208.63 139.403 209.157 139.748C209.685 140.089 210.084 140.579 210.354 141.218C210.625 141.857 210.749 142.62 210.725 143.507H209.675V143.143C209.657 142.163 209.444 141.423 209.038 140.924C208.637 140.425 208.049 140.175 207.274 140.175C206.462 140.175 205.839 140.439 205.405 140.966C204.976 141.493 204.761 142.245 204.761 143.22C204.761 144.172 204.976 144.912 205.405 145.439C205.839 145.962 206.453 146.223 207.246 146.223C207.788 146.223 208.259 146.099 208.66 145.852C209.066 145.6 209.386 145.238 209.619 144.767L210.578 145.138C210.28 145.796 209.839 146.307 209.255 146.671C208.677 147.03 208.021 147.21 207.288 147.21ZM204.397 143.507V142.646H210.172V143.507H204.397ZM217.534 147V143.143C217.534 142.723 217.494 142.338 217.415 141.988C217.335 141.633 217.207 141.325 217.03 141.064C216.857 140.798 216.631 140.593 216.351 140.448C216.075 140.303 215.739 140.231 215.343 140.231C214.979 140.231 214.657 140.294 214.377 140.42C214.101 140.546 213.868 140.728 213.677 140.966C213.49 141.199 213.348 141.484 213.25 141.82C213.152 142.156 213.103 142.539 213.103 142.968L212.375 142.807C212.375 142.032 212.51 141.381 212.781 140.854C213.051 140.327 213.425 139.928 213.901 139.657C214.377 139.386 214.923 139.251 215.539 139.251C215.991 139.251 216.386 139.321 216.722 139.461C217.062 139.601 217.349 139.79 217.583 140.028C217.821 140.266 218.012 140.539 218.157 140.847C218.301 141.15 218.406 141.475 218.472 141.82C218.537 142.161 218.57 142.501 218.57 142.842V147H217.534ZM212.067 147V139.44H212.998V141.302H213.103V147H212.067ZM223.278 147.21C222.574 147.21 221.972 147.035 221.472 146.685C220.973 146.33 220.59 145.852 220.324 145.25C220.058 144.648 219.925 143.969 219.925 143.213C219.925 142.462 220.056 141.785 220.317 141.183C220.583 140.581 220.964 140.105 221.458 139.755C221.953 139.405 222.546 139.23 223.236 139.23C223.946 139.23 224.543 139.403 225.028 139.748C225.514 140.093 225.88 140.567 226.127 141.169C226.379 141.766 226.505 142.448 226.505 143.213C226.505 143.964 226.382 144.643 226.134 145.25C225.887 145.852 225.523 146.33 225.042 146.685C224.562 147.035 223.974 147.21 223.278 147.21ZM223.383 146.251C223.92 146.251 224.363 146.12 224.713 145.859C225.063 145.598 225.325 145.238 225.497 144.781C225.67 144.319 225.756 143.796 225.756 143.213C225.756 142.62 225.67 142.098 225.497 141.645C225.325 141.188 225.063 140.831 224.713 140.574C224.368 140.317 223.932 140.189 223.404 140.189C222.863 140.189 222.415 140.322 222.06 140.588C221.706 140.854 221.442 141.216 221.269 141.673C221.101 142.13 221.017 142.644 221.017 143.213C221.017 143.787 221.104 144.305 221.276 144.767C221.454 145.224 221.717 145.586 222.067 145.852C222.417 146.118 222.856 146.251 223.383 146.251ZM225.756 147V141.309H225.644V136.92H226.68V147H225.756ZM230.807 147.21C230.238 147.21 229.759 147.107 229.372 146.902C228.989 146.697 228.702 146.424 228.511 146.083C228.32 145.742 228.224 145.371 228.224 144.97C228.224 144.559 228.306 144.209 228.469 143.92C228.637 143.626 228.863 143.386 229.148 143.199C229.437 143.012 229.771 142.87 230.149 142.772C230.532 142.679 230.954 142.597 231.416 142.527C231.883 142.452 232.338 142.389 232.781 142.338C233.229 142.282 233.621 142.228 233.957 142.177L233.593 142.401C233.607 141.654 233.462 141.101 233.159 140.742C232.856 140.383 232.328 140.203 231.577 140.203C231.059 140.203 230.62 140.32 230.261 140.553C229.906 140.786 229.657 141.155 229.512 141.659L228.511 141.365C228.684 140.688 229.031 140.163 229.554 139.79C230.077 139.417 230.756 139.23 231.591 139.23C232.282 139.23 232.867 139.361 233.348 139.622C233.833 139.879 234.176 140.252 234.377 140.742C234.47 140.961 234.531 141.206 234.559 141.477C234.587 141.748 234.601 142.023 234.601 142.303V147H233.684V145.103L233.95 145.215C233.693 145.864 233.294 146.358 232.753 146.699C232.212 147.04 231.563 147.21 230.807 147.21ZM230.926 146.321C231.407 146.321 231.827 146.235 232.186 146.062C232.545 145.889 232.835 145.654 233.054 145.355C233.273 145.052 233.416 144.711 233.481 144.333C233.537 144.09 233.567 143.824 233.572 143.535C233.577 143.241 233.579 143.022 233.579 142.877L233.971 143.08C233.621 143.127 233.241 143.173 232.83 143.22C232.424 143.267 232.023 143.32 231.626 143.381C231.234 143.442 230.879 143.514 230.562 143.598C230.347 143.659 230.14 143.745 229.939 143.857C229.738 143.964 229.573 144.109 229.442 144.291C229.316 144.473 229.253 144.699 229.253 144.97C229.253 145.189 229.307 145.402 229.414 145.607C229.526 145.812 229.703 145.983 229.946 146.118C230.193 146.253 230.52 146.321 230.926 146.321ZM239.244 147.203C238.358 147.203 237.627 147.012 237.053 146.629C236.484 146.246 236.134 145.714 236.003 145.033L237.053 144.858C237.165 145.287 237.42 145.63 237.816 145.887C238.218 146.139 238.712 146.265 239.3 146.265C239.874 146.265 240.327 146.146 240.658 145.908C240.99 145.665 241.155 145.336 241.155 144.921C241.155 144.688 241.102 144.499 240.994 144.354C240.892 144.205 240.679 144.067 240.357 143.941C240.035 143.815 239.555 143.666 238.915 143.493C238.229 143.306 237.693 143.12 237.305 142.933C236.918 142.746 236.643 142.532 236.479 142.289C236.316 142.042 236.234 141.741 236.234 141.386C236.234 140.957 236.356 140.581 236.598 140.259C236.841 139.932 237.177 139.68 237.606 139.503C238.036 139.321 238.535 139.23 239.104 139.23C239.674 139.23 240.182 139.323 240.63 139.51C241.083 139.692 241.447 139.949 241.722 140.28C241.998 140.611 242.161 140.996 242.212 141.435L241.162 141.624C241.092 141.181 240.871 140.831 240.497 140.574C240.129 140.313 239.66 140.177 239.09 140.168C238.554 140.154 238.117 140.257 237.781 140.476C237.445 140.691 237.277 140.978 237.277 141.337C237.277 141.538 237.338 141.71 237.459 141.855C237.581 141.995 237.8 142.128 238.117 142.254C238.439 142.38 238.897 142.518 239.489 142.667C240.185 142.844 240.731 143.031 241.127 143.227C241.524 143.423 241.806 143.654 241.974 143.92C242.142 144.186 242.226 144.515 242.226 144.907C242.226 145.621 241.96 146.183 241.428 146.594C240.901 147 240.173 147.203 239.244 147.203Z" fill="white"/>
</svg>
