<svg width="54" height="58" viewBox="0 0 54 58" fill="none" xmlns="http://www.w3.org/2000/svg">
<g filter="url(#filter0_i_50_252)">
<path d="M53.652 46.2549C53.652 52.7416 48.3936 58 41.907 58C39.0602 58 36.3102 56.966 34.1687 55.0904L25.902 47.8502C21.5383 44.0284 14.6744 46.3105 13.4677 51.9842L13.3227 52.666C12.6613 55.7762 9.91474 58 6.73502 58C3.01537 58 0 54.9846 0 51.265V11.5622C0 5.17658 5.17657 0 11.5622 0H11.8675C14.6249 0 17.2778 1.05522 19.2819 2.94917L27.2519 10.4813C31.1223 14.139 37.4908 11.3952 37.4908 6.0698C37.4908 2.71755 40.2083 0 43.5606 0H45.5714C50.0342 0 53.652 3.61782 53.652 8.08062V46.2549Z" fill="url(#paint0_linear_50_252)"/>
</g>
<defs>
<filter id="filter0_i_50_252" x="0" y="0" width="53.6521" height="58" filterUnits="userSpaceOnUse" color-interpolation-filters="sRGB">
<feFlood flood-opacity="0" result="BackgroundImageFix"/>
<feBlend mode="normal" in="SourceGraphic" in2="BackgroundImageFix" result="shape"/>
<feColorMatrix in="SourceAlpha" type="matrix" values="0 0 0 0 0 0 0 0 0 0 0 0 0 0 0 0 0 0 127 0" result="hardAlpha"/>
<feOffset/>
<feGaussianBlur stdDeviation="100"/>
<feComposite in2="hardAlpha" operator="arithmetic" k2="-1" k3="1"/>
<feColorMatrix type="matrix" values="0 0 0 0 1 0 0 0 0 1 0 0 0 0 1 0 0 0 0.4 0"/>
<feBlend mode="normal" in2="shape" result="effect1_innerShadow_50_252"/>
</filter>
<linearGradient id="paint0_linear_50_252" x1="26.826" y1="0" x2="26.826" y2="58" gradientUnits="userSpaceOnUse">
<stop stop-color="#2CFBCD"/>
<stop offset="1" stop-color="#0DA382"/>
</linearGradient>
</defs>
</svg>
