<svg width="458" height="495" viewBox="0 0 458 495" fill="none" xmlns="http://www.w3.org/2000/svg">
<path d="M458 394.733C458 450.109 413.109 495 357.733 495C333.435 495 309.962 486.176 291.681 470.169L221.098 408.365C183.851 375.75 125.269 395.229 114.968 443.654L113.731 449.468C108.084 476.017 84.6379 495 57.4947 495C25.7413 495 0 469.259 0 437.505V98.7054C0 44.1919 44.1919 0 98.7054 0H101.311C124.847 0 147.492 9.0055 164.599 25.1695L232.651 89.4667C265.688 120.681 320.04 97.2598 320.04 51.8085C320.04 23.1955 343.235 0 371.848 0H389.02C427.117 0 458 30.8834 458 68.9801V394.733Z" fill="url(#paint0_linear_2_32)"/>
<defs>
<linearGradient id="paint0_linear_2_32" x1="229" y1="0" x2="229" y2="495" gradientUnits="userSpaceOnUse">
<stop stop-color="#2CFBCD"/>
<stop offset="1" stop-color="#1A957A"/>
</linearGradient>
</defs>
</svg>
