<svg width="300" height="152" viewBox="0 0 300 152" fill="none" xmlns="http://www.w3.org/2000/svg">
<path d="M0 9.85363C0 5.43535 3.58172 1.85364 8 1.85364H66.7508C71.1691 1.85364 74.7508 5.43536 74.7508 9.85364V152H0V9.85363Z" fill="#181818"/>
<path d="M82.7242 75.6584C82.7242 71.2402 86.306 67.6584 90.7242 67.6584H292C296.418 67.6584 300 71.2402 300 75.6584V152H82.7242V75.6584Z" fill="#181818"/>
<rect x="82.7242" y="36.1462" width="93.6877" height="25.9512" rx="8" fill="#181818"/>
<rect x="82.7242" y="4.63403" width="60.7973" height="25.9512" rx="8" fill="#181818"/>
<rect x="239.203" y="4.63403" width="60.7973" height="25.9512" rx="8" fill="#181818"/>
<rect width="78.1103" height="25.9292" rx="8" transform="matrix(0.992221 -0.124492 0.109149 0.994025 150.585 9.72412)" fill="#2CFBCD"/>
<rect x="183.389" y="36.1462" width="116.611" height="25.9512" rx="8" fill="#181818"/>
<path d="M213.344 26.3567C212.976 25.339 214.077 24.4027 215.148 24.8224L226.716 29.3576C227.822 29.7914 227.822 31.2366 226.715 31.6568L222.191 33.3751C222.122 33.401 222.066 33.4487 222.033 33.5092L219.811 37.5286C219.268 38.5109 217.705 38.3952 217.325 37.3445L213.344 26.3567Z" fill="#141414" stroke="#D2D2D2"/>
</svg>
