<svg width="300" height="160" viewBox="0 0 300 160" fill="none" xmlns="http://www.w3.org/2000/svg">
<path d="M0 17.8536C0 13.4354 3.58172 9.85364 8 9.85364H66.7508C71.1691 9.85364 74.7508 13.4354 74.7508 17.8536V160H0V17.8536Z" fill="#181818"/>
<path d="M82.7242 83.6584C82.7242 79.2402 86.306 75.6584 90.7242 75.6584H292C296.418 75.6584 300 79.2402 300 83.6584V160H82.7242V83.6584Z" fill="#181818"/>
<rect x="82.7242" y="44.1462" width="93.6877" height="25.9512" rx="8" fill="#181818"/>
<rect x="82.7242" y="12.634" width="60.7973" height="25.9512" rx="8" fill="#181818"/>
<rect x="239.203" y="12.634" width="60.7973" height="25.9512" rx="8" fill="#181818"/>
<g filter="url(#filter0_d_70_266)">
<rect width="78.1103" height="25.9292" rx="8" transform="matrix(0.992221 -0.124492 0.109149 0.994025 150.585 17.7241)" fill="#2CFBCD"/>
</g>
<rect x="183.389" y="44.1462" width="116.611" height="25.9512" rx="8" fill="#181818"/>
<path d="M213.344 34.3567C212.976 33.339 214.077 32.4027 215.148 32.8224L226.716 37.3576C227.822 37.7914 227.822 39.2366 226.715 39.6568L222.191 41.3751C222.122 41.401 222.066 41.4487 222.033 41.5092L219.811 45.5286C219.268 46.5109 217.705 46.3952 217.325 45.3445L213.344 34.3567Z" fill="#141414" stroke="#D2D2D2"/>
<defs>
<filter id="filter0_d_70_266" x="143.41" y="0.932983" width="94.6836" height="49.6324" filterUnits="userSpaceOnUse" color-interpolation-filters="sRGB">
<feFlood flood-opacity="0" result="BackgroundImageFix"/>
<feColorMatrix in="SourceAlpha" type="matrix" values="0 0 0 0 0 0 0 0 0 0 0 0 0 0 0 0 0 0 127 0" result="hardAlpha"/>
<feOffset/>
<feGaussianBlur stdDeviation="4"/>
<feComposite in2="hardAlpha" operator="out"/>
<feColorMatrix type="matrix" values="0 0 0 0 0.172549 0 0 0 0 0.984314 0 0 0 0 0.803922 0 0 0 0.2 0"/>
<feBlend mode="normal" in2="BackgroundImageFix" result="effect1_dropShadow_70_266"/>
<feBlend mode="normal" in="SourceGraphic" in2="effect1_dropShadow_70_266" result="shape"/>
</filter>
</defs>
</svg>
