<svg width="300" height="152" viewBox="0 0 300 152" fill="none" xmlns="http://www.w3.org/2000/svg">
<rect x="221.409" y="103.745" width="78.0909" height="27.6792" rx="11.5" fill="#181818"/>
<rect x="221.409" y="103.745" width="78.0909" height="27.6792" rx="11.5" stroke="url(#paint0_linear_115_3)"/>
<path d="M245.875 113.655V114.375H243.115V116.735H245.575V117.445H243.115V119.865H245.875V120.585H242.205V113.655H245.875ZM249.053 119.845H249.803V120.585H248.883C247.93 120.585 247.453 120.115 247.453 119.175V115.835H246.743V115.095H247.453V113.735H248.373V115.095H249.793V115.835H248.373V119.175C248.373 119.422 248.423 119.595 248.523 119.695C248.623 119.795 248.8 119.845 249.053 119.845ZM254.538 119.335C254.905 118.962 255.088 118.465 255.088 117.845C255.088 117.225 254.905 116.728 254.538 116.355C254.178 115.982 253.741 115.795 253.228 115.795C252.721 115.795 252.285 115.975 251.918 116.335C251.558 116.695 251.378 117.185 251.378 117.805C251.378 118.425 251.561 118.928 251.928 119.315C252.295 119.702 252.731 119.895 253.238 119.895C253.745 119.895 254.178 119.708 254.538 119.335ZM253.068 120.675C252.321 120.675 251.698 120.408 251.198 119.875C250.698 119.335 250.448 118.648 250.448 117.815C250.448 116.975 250.695 116.298 251.188 115.785C251.688 115.265 252.315 115.005 253.068 115.005C253.535 115.005 253.941 115.115 254.288 115.335C254.641 115.555 254.908 115.842 255.088 116.195V115.095H256.008V120.585H255.088V119.465C254.908 119.825 254.641 120.118 254.288 120.345C253.941 120.565 253.535 120.675 253.068 120.675ZM260.267 119.895C260.781 119.895 261.217 119.705 261.577 119.325C261.944 118.938 262.127 118.435 262.127 117.815C262.127 117.188 261.944 116.695 261.577 116.335C261.217 115.975 260.781 115.795 260.267 115.795C259.761 115.795 259.324 115.982 258.957 116.355C258.597 116.728 258.417 117.225 258.417 117.845C258.417 118.458 258.597 118.955 258.957 119.335C259.324 119.708 259.761 119.895 260.267 119.895ZM260.447 115.005C261.201 115.005 261.824 115.265 262.317 115.785C262.817 116.298 263.067 116.975 263.067 117.815C263.067 118.648 262.817 119.335 262.317 119.875C261.817 120.408 261.194 120.675 260.447 120.675C259.981 120.675 259.571 120.565 259.217 120.345C258.871 120.118 258.604 119.825 258.417 119.465V123.185H257.507V115.095H258.417V116.195C258.604 115.842 258.871 115.555 259.217 115.335C259.571 115.115 259.981 115.005 260.447 115.005ZM267.937 119.335C268.303 118.962 268.487 118.465 268.487 117.845C268.487 117.225 268.303 116.728 267.937 116.355C267.577 115.982 267.14 115.795 266.627 115.795C266.12 115.795 265.683 115.975 265.317 116.335C264.957 116.695 264.777 117.185 264.777 117.805C264.777 118.425 264.96 118.928 265.327 119.315C265.693 119.702 266.13 119.895 266.637 119.895C267.143 119.895 267.577 119.708 267.937 119.335ZM266.467 120.675C265.72 120.675 265.097 120.408 264.597 119.875C264.097 119.335 263.847 118.648 263.847 117.815C263.847 116.975 264.093 116.298 264.587 115.785C265.087 115.265 265.713 115.005 266.467 115.005C266.933 115.005 267.34 115.115 267.687 115.335C268.04 115.555 268.307 115.842 268.487 116.195V115.095H269.407V120.585H268.487V119.465C268.307 119.825 268.04 120.118 267.687 120.345C267.34 120.565 266.933 120.675 266.467 120.675ZM273.754 114.985C273.807 114.405 274.047 113.952 274.474 113.625C274.907 113.292 275.457 113.125 276.124 113.125C276.797 113.125 277.327 113.302 277.714 113.655C278.107 114.008 278.304 114.458 278.304 115.005C278.304 115.398 278.194 115.745 277.974 116.045C277.754 116.338 277.47 116.538 277.124 116.645V116.695C277.53 116.808 277.85 117.028 278.084 117.355C278.317 117.682 278.434 118.118 278.434 118.665C278.434 119.212 278.23 119.675 277.824 120.055C277.424 120.435 276.867 120.625 276.154 120.625C275.447 120.625 274.867 120.445 274.414 120.085C273.96 119.725 273.71 119.215 273.664 118.555H274.524C274.557 118.935 274.714 119.248 274.994 119.495C275.28 119.735 275.657 119.855 276.124 119.855C276.597 119.855 276.957 119.732 277.204 119.485C277.457 119.232 277.584 118.908 277.584 118.515C277.584 117.988 277.417 117.615 277.084 117.395C276.75 117.175 276.24 117.065 275.554 117.065H275.314V116.305H275.564C276.817 116.292 277.444 115.888 277.444 115.095C277.444 114.728 277.324 114.438 277.084 114.225C276.85 114.012 276.52 113.905 276.094 113.905C275.667 113.905 275.33 114.005 275.084 114.205C274.837 114.398 274.687 114.658 274.634 114.985H273.754Z" fill="white"/>
<rect x="203.682" y="0.5" width="78.0909" height="27.6792" rx="11.5" fill="#181818"/>
<rect x="203.682" y="0.5" width="78.0909" height="27.6792" rx="11.5" stroke="url(#paint1_linear_115_3)"/>
<path d="M228.147 10.4096V11.1296H225.387V13.4896H227.847V14.1996H225.387V16.6196H228.147V17.3396H224.477V10.4096H228.147ZM231.326 16.5996H232.076V17.3396H231.156C230.203 17.3396 229.726 16.8696 229.726 15.9296V12.5896H229.016V11.8496H229.726V10.4896H230.646V11.8496H232.066V12.5896H230.646V15.9296C230.646 16.1763 230.696 16.3496 230.796 16.4496C230.896 16.5496 231.073 16.5996 231.326 16.5996ZM236.811 16.0896C237.177 15.7163 237.361 15.2196 237.361 14.5996C237.361 13.9796 237.177 13.4829 236.811 13.1096C236.451 12.7363 236.014 12.5496 235.501 12.5496C234.994 12.5496 234.557 12.7296 234.191 13.0896C233.831 13.4496 233.651 13.9396 233.651 14.5596C233.651 15.1796 233.834 15.6829 234.201 16.0696C234.567 16.4563 235.004 16.6496 235.511 16.6496C236.017 16.6496 236.451 16.4629 236.811 16.0896ZM235.341 17.4296C234.594 17.4296 233.971 17.1629 233.471 16.6296C232.971 16.0896 232.721 15.4029 232.721 14.5696C232.721 13.7296 232.967 13.0529 233.461 12.5396C233.961 12.0196 234.587 11.7596 235.341 11.7596C235.807 11.7596 236.214 11.8696 236.561 12.0896C236.914 12.3096 237.181 12.5963 237.361 12.9496V11.8496H238.281V17.3396H237.361V16.2196C237.181 16.5796 236.914 16.8729 236.561 17.0996C236.214 17.3196 235.807 17.4296 235.341 17.4296ZM242.54 16.6496C243.053 16.6496 243.49 16.4596 243.85 16.0796C244.217 15.6929 244.4 15.1896 244.4 14.5696C244.4 13.9429 244.217 13.4496 243.85 13.0896C243.49 12.7296 243.053 12.5496 242.54 12.5496C242.033 12.5496 241.597 12.7363 241.23 13.1096C240.87 13.4829 240.69 13.9796 240.69 14.5996C240.69 15.2129 240.87 15.7096 241.23 16.0896C241.597 16.4629 242.033 16.6496 242.54 16.6496ZM242.72 11.7596C243.473 11.7596 244.097 12.0196 244.59 12.5396C245.09 13.0529 245.34 13.7296 245.34 14.5696C245.34 15.4029 245.09 16.0896 244.59 16.6296C244.09 17.1629 243.467 17.4296 242.72 17.4296C242.253 17.4296 241.843 17.3196 241.49 17.0996C241.143 16.8729 240.877 16.5796 240.69 16.2196V19.9396H239.78V11.8496H240.69V12.9496C240.877 12.5963 241.143 12.3096 241.49 12.0896C241.843 11.8696 242.253 11.7596 242.72 11.7596ZM250.209 16.0896C250.576 15.7163 250.759 15.2196 250.759 14.5996C250.759 13.9796 250.576 13.4829 250.209 13.1096C249.849 12.7363 249.413 12.5496 248.899 12.5496C248.393 12.5496 247.956 12.7296 247.589 13.0896C247.229 13.4496 247.049 13.9396 247.049 14.5596C247.049 15.1796 247.233 15.6829 247.599 16.0696C247.966 16.4563 248.403 16.6496 248.909 16.6496C249.416 16.6496 249.849 16.4629 250.209 16.0896ZM248.739 17.4296C247.993 17.4296 247.369 17.1629 246.869 16.6296C246.369 16.0896 246.119 15.4029 246.119 14.5696C246.119 13.7296 246.366 13.0529 246.859 12.5396C247.359 12.0196 247.986 11.7596 248.739 11.7596C249.206 11.7596 249.613 11.8696 249.959 12.0896C250.313 12.3096 250.579 12.5963 250.759 12.9496V11.8496H251.679V17.3396H250.759V16.2196C250.579 16.5796 250.313 16.8729 249.959 17.0996C249.613 17.3196 249.206 17.4296 248.739 17.4296ZM255.987 17.2396V16.5896C256.147 16.4496 256.397 16.2329 256.737 15.9396C257.083 15.6463 257.34 15.4263 257.507 15.2796C257.673 15.1263 257.893 14.9229 258.167 14.6696C258.44 14.4096 258.647 14.1929 258.787 14.0196C258.933 13.8463 259.083 13.6463 259.237 13.4196C259.523 12.9929 259.667 12.5729 259.667 12.1596C259.667 11.7396 259.557 11.4029 259.337 11.1496C259.123 10.8963 258.783 10.7696 258.317 10.7696C257.857 10.7696 257.503 10.9129 257.257 11.1996C257.01 11.4796 256.877 11.8529 256.857 12.3196H255.987C256.013 11.5729 256.237 10.9996 256.657 10.5996C257.083 10.1929 257.633 9.9896 258.307 9.9896C258.987 9.9896 259.53 10.1829 259.937 10.5696C260.35 10.9496 260.557 11.4696 260.557 12.1296C260.557 12.9229 260.17 13.7396 259.397 14.5796C259.117 14.8796 258.9 15.0996 258.747 15.2396C258.32 15.6529 257.863 16.0629 257.377 16.4696H260.777V17.2396H255.987Z" fill="white"/>
<rect x="27.7727" y="123.821" width="79.4545" height="27.6792" rx="11.5" fill="#181818"/>
<rect x="27.7727" y="123.821" width="79.4545" height="27.6792" rx="11.5" stroke="url(#paint2_linear_115_3)"/>
<path d="M52.42 133.73V134.45H49.66V136.81H52.12V137.52H49.66V139.94H52.42V140.66H48.75V133.73H52.42ZM55.5988 139.92H56.3488V140.66H55.4288C54.4755 140.66 53.9988 140.19 53.9988 139.25V135.91H53.2888V135.17H53.9988V133.81H54.9188V135.17H56.3388V135.91H54.9188V139.25C54.9188 139.497 54.9688 139.67 55.0688 139.77C55.1688 139.87 55.3455 139.92 55.5988 139.92ZM61.0835 139.41C61.4502 139.037 61.6335 138.54 61.6335 137.92C61.6335 137.3 61.4502 136.804 61.0835 136.43C60.7235 136.057 60.2868 135.87 59.7735 135.87C59.2668 135.87 58.8302 136.05 58.4635 136.41C58.1035 136.77 57.9235 137.26 57.9235 137.88C57.9235 138.5 58.1068 139.004 58.4735 139.39C58.8402 139.777 59.2768 139.97 59.7835 139.97C60.2902 139.97 60.7235 139.784 61.0835 139.41ZM59.6135 140.75C58.8668 140.75 58.2435 140.484 57.7435 139.95C57.2435 139.41 56.9935 138.724 56.9935 137.89C56.9935 137.05 57.2402 136.374 57.7335 135.86C58.2335 135.34 58.8602 135.08 59.6135 135.08C60.0802 135.08 60.4868 135.19 60.8335 135.41C61.1868 135.63 61.4535 135.917 61.6335 136.27V135.17H62.5535V140.66H61.6335V139.54C61.4535 139.9 61.1868 140.194 60.8335 140.42C60.4868 140.64 60.0802 140.75 59.6135 140.75ZM66.8127 139.97C67.3261 139.97 67.7627 139.78 68.1227 139.4C68.4894 139.014 68.6727 138.51 68.6727 137.89C68.6727 137.264 68.4894 136.77 68.1227 136.41C67.7627 136.05 67.3261 135.87 66.8127 135.87C66.3061 135.87 65.8694 136.057 65.5027 136.43C65.1427 136.804 64.9627 137.3 64.9627 137.92C64.9627 138.534 65.1427 139.03 65.5027 139.41C65.8694 139.784 66.3061 139.97 66.8127 139.97ZM66.9927 135.08C67.7461 135.08 68.3694 135.34 68.8627 135.86C69.3627 136.374 69.6127 137.05 69.6127 137.89C69.6127 138.724 69.3627 139.41 68.8627 139.95C68.3627 140.484 67.7394 140.75 66.9927 140.75C66.5261 140.75 66.1161 140.64 65.7627 140.42C65.4161 140.194 65.1494 139.9 64.9627 139.54V143.26H64.0527V135.17H64.9627V136.27C65.1494 135.917 65.4161 135.63 65.7627 135.41C66.1161 135.19 66.5261 135.08 66.9927 135.08ZM74.482 139.41C74.8486 139.037 75.032 138.54 75.032 137.92C75.032 137.3 74.8486 136.804 74.482 136.43C74.122 136.057 73.6853 135.87 73.172 135.87C72.6653 135.87 72.2286 136.05 71.862 136.41C71.502 136.77 71.322 137.26 71.322 137.88C71.322 138.5 71.5053 139.004 71.872 139.39C72.2386 139.777 72.6753 139.97 73.182 139.97C73.6886 139.97 74.122 139.784 74.482 139.41ZM73.012 140.75C72.2653 140.75 71.642 140.484 71.142 139.95C70.642 139.41 70.392 138.724 70.392 137.89C70.392 137.05 70.6386 136.374 71.132 135.86C71.632 135.34 72.2586 135.08 73.012 135.08C73.4786 135.08 73.8853 135.19 74.232 135.41C74.5853 135.63 74.852 135.917 75.032 136.27V135.17H75.952V140.66H75.032V139.54C74.852 139.9 74.5853 140.194 74.232 140.42C73.8853 140.64 73.4786 140.75 73.012 140.75ZM83.8992 138.26V134.3L81.2092 138.26H83.8992ZM83.8692 140.66V139.04H80.1492V138.4L83.5892 133.46H84.7492V138.26H85.7192V139.04H84.7492V140.66H83.8692Z" fill="white"/>
<rect x="0.5" y="29.1792" width="74" height="27.6792" rx="11.5" fill="#181818"/>
<rect x="0.5" y="29.1792" width="74" height="27.6792" rx="11.5" stroke="url(#paint3_linear_115_3)"/>
<path d="M21.68 40.2888V42.6188H24.22V43.3688H21.68V45.7688H24.52V46.5188H20.77V39.5388H24.52V40.2888H21.68ZM27.007 41.7888V45.0188C27.007 45.2855 27.0636 45.4755 27.177 45.5888C27.2903 45.6955 27.487 45.7488 27.767 45.7488H28.437V46.5188H27.617C27.1103 46.5188 26.7303 46.4021 26.477 46.1688C26.2236 45.9355 26.097 45.5521 26.097 45.0188V41.7888H25.387V41.0388H26.097V39.6588H27.007V41.0388H28.437V41.7888H27.007ZM29.1995 43.7588C29.1995 43.1988 29.3129 42.7088 29.5395 42.2888C29.7662 41.8621 30.0762 41.5321 30.4695 41.2988C30.8695 41.0655 31.3129 40.9488 31.7995 40.9488C32.2795 40.9488 32.6962 41.0521 33.0495 41.2588C33.4029 41.4655 33.6662 41.7255 33.8395 42.0388V41.0388H34.7595V46.5188H33.8395V45.4988C33.6595 45.8188 33.3895 46.0855 33.0295 46.2988C32.6762 46.5055 32.2629 46.6088 31.7895 46.6088C31.3029 46.6088 30.8629 46.4888 30.4695 46.2488C30.0762 46.0088 29.7662 45.6721 29.5395 45.2388C29.3129 44.8055 29.1995 44.3121 29.1995 43.7588ZM33.8395 43.7688C33.8395 43.3555 33.7562 42.9955 33.5895 42.6888C33.4229 42.3821 33.1962 42.1488 32.9095 41.9888C32.6295 41.8221 32.3195 41.7388 31.9795 41.7388C31.6395 41.7388 31.3295 41.8188 31.0495 41.9788C30.7695 42.1388 30.5462 42.3721 30.3795 42.6788C30.2129 42.9855 30.1295 43.3455 30.1295 43.7588C30.1295 44.1788 30.2129 44.5455 30.3795 44.8588C30.5462 45.1655 30.7695 45.4021 31.0495 45.5688C31.3295 45.7288 31.6395 45.8088 31.9795 45.8088C32.3195 45.8088 32.6295 45.7288 32.9095 45.5688C33.1962 45.4021 33.4229 45.1655 33.5895 44.8588C33.7562 44.5455 33.8395 44.1821 33.8395 43.7688ZM37.2073 42.0488C37.3873 41.7355 37.654 41.4755 38.0073 41.2688C38.3673 41.0555 38.784 40.9488 39.2573 40.9488C39.744 40.9488 40.184 41.0655 40.5773 41.2988C40.9773 41.5321 41.2907 41.8621 41.5173 42.2888C41.744 42.7088 41.8573 43.1988 41.8573 43.7588C41.8573 44.3121 41.744 44.8055 41.5173 45.2388C41.2907 45.6721 40.9773 46.0088 40.5773 46.2488C40.184 46.4888 39.744 46.6088 39.2573 46.6088C38.7907 46.6088 38.3773 46.5055 38.0173 46.2988C37.664 46.0855 37.394 45.8221 37.2073 45.5088V49.1188H36.2973V41.0388H37.2073V42.0488ZM40.9273 43.7588C40.9273 43.3455 40.844 42.9855 40.6773 42.6788C40.5107 42.3721 40.284 42.1388 39.9973 41.9788C39.7173 41.8188 39.4073 41.7388 39.0673 41.7388C38.734 41.7388 38.424 41.8221 38.1373 41.9888C37.8573 42.1488 37.6307 42.3855 37.4573 42.6988C37.2907 43.0055 37.2073 43.3621 37.2073 43.7688C37.2073 44.1821 37.2907 44.5455 37.4573 44.8588C37.6307 45.1655 37.8573 45.4021 38.1373 45.5688C38.424 45.7288 38.734 45.8088 39.0673 45.8088C39.4073 45.8088 39.7173 45.7288 39.9973 45.5688C40.284 45.4021 40.5107 45.1655 40.6773 44.8588C40.844 44.5455 40.9273 44.1788 40.9273 43.7588ZM42.7152 43.7588C42.7152 43.1988 42.8285 42.7088 43.0552 42.2888C43.2818 41.8621 43.5918 41.5321 43.9852 41.2988C44.3852 41.0655 44.8285 40.9488 45.3152 40.9488C45.7952 40.9488 46.2118 41.0521 46.5652 41.2588C46.9185 41.4655 47.1818 41.7255 47.3552 42.0388V41.0388H48.2752V46.5188H47.3552V45.4988C47.1752 45.8188 46.9052 46.0855 46.5452 46.2988C46.1918 46.5055 45.7785 46.6088 45.3052 46.6088C44.8185 46.6088 44.3785 46.4888 43.9852 46.2488C43.5918 46.0088 43.2818 45.6721 43.0552 45.2388C42.8285 44.8055 42.7152 44.3121 42.7152 43.7588ZM47.3552 43.7688C47.3552 43.3555 47.2718 42.9955 47.1052 42.6888C46.9385 42.3821 46.7118 42.1488 46.4252 41.9888C46.1452 41.8221 45.8352 41.7388 45.4952 41.7388C45.1552 41.7388 44.8452 41.8188 44.5652 41.9788C44.2852 42.1388 44.0618 42.3721 43.8952 42.6788C43.7285 42.9855 43.6452 43.3455 43.6452 43.7588C43.6452 44.1788 43.7285 44.5455 43.8952 44.8588C44.0618 45.1655 44.2852 45.4021 44.5652 45.5688C44.8452 45.7288 45.1552 45.8088 45.4952 45.8088C45.8352 45.8088 46.1452 45.7288 46.4252 45.5688C46.7118 45.4021 46.9385 45.1655 47.1052 44.8588C47.2718 44.5455 47.3552 44.1821 47.3552 43.7688ZM52.089 40.1188V39.2888H53.969V46.5188H53.049V40.1188H52.089Z" fill="white"/>
<path d="M221.652 117.532C202.869 120.178 170.302 129.675 164.905 102.056" stroke="#343434" stroke-width="2" stroke-linecap="round"/>
<path d="M221.652 116.048C222.472 116.048 223.137 116.713 223.137 117.532C223.137 118.352 222.472 119.016 221.652 119.017C220.833 119.017 220.168 118.352 220.168 117.532C220.168 116.713 220.833 116.048 221.652 116.048Z" fill="#2CFBCD" stroke="#343434"/>
<path d="M101.261 138.425C120.139 137.027 124.53 128.988 129.927 101.369" stroke="#343434" stroke-width="2" stroke-linecap="round"/>
<path d="M101.147 136.827C100.328 136.828 99.6631 137.492 99.6631 138.312C99.6632 139.131 100.328 139.796 101.147 139.796C101.967 139.796 102.632 139.131 102.632 138.312C102.632 137.492 101.967 136.827 101.147 136.827Z" fill="#2CFBCD" stroke="#343434"/>
<path d="M74.2566 42.6892C93.04 40.0437 125.607 30.5462 131.004 58.1656" stroke="#343434" stroke-width="2" stroke-linecap="round"/>
<path d="M74.2566 44.1736C73.437 44.1735 72.7722 43.5088 72.7722 42.6892C72.7723 41.8697 73.4371 41.2049 74.2566 41.2048C75.0762 41.2048 75.7408 41.8696 75.741 42.6892C75.741 43.5089 75.0763 44.1736 74.2566 44.1736Z" fill="#2CFBCD" stroke="#343434"/>
<path d="M203.388 14.23C186.471 22.8106 154.33 33.6608 165.711 59.3983" stroke="#343434" stroke-width="2" stroke-linecap="round"/>
<path d="M204.238 15.4473C204.91 14.9782 205.074 14.0527 204.605 13.3806C204.136 12.7086 203.211 12.5439 202.539 13.0129C201.866 13.4819 201.702 14.4075 202.171 15.0796C202.64 15.7518 203.565 15.9165 204.238 15.4473Z" fill="#2CFBCD" stroke="#343434"/>
<path d="M171.857 98.064C171.857 104.079 166.981 108.954 160.967 108.954C158.327 108.954 155.777 107.996 153.792 106.256L146.127 99.5432C142.08 95.9995 135.716 98.1155 134.597 103.376L134.463 104.008C133.849 106.892 131.303 108.954 128.354 108.954C124.906 108.954 122.11 106.158 122.11 102.709V65.896C122.11 59.9751 126.909 55.1753 132.83 55.1753H133.113C135.67 55.1753 138.13 56.1537 139.988 57.9098L147.378 64.8938C150.967 68.2854 156.872 65.7412 156.872 60.8034C156.872 57.6951 159.392 55.1753 162.5 55.1753H164.365C168.503 55.1753 171.857 58.5298 171.857 62.6678V98.064Z" fill="#2CFBCD"/>
<defs>
<linearGradient id="paint0_linear_115_3" x1="300" y1="117.585" x2="220.909" y2="117.585" gradientUnits="userSpaceOnUse">
<stop stop-color="#343434"/>
<stop offset="1" stop-color="#9A9A9A"/>
</linearGradient>
<linearGradient id="paint1_linear_115_3" x1="282.273" y1="14.3396" x2="203.182" y2="14.3396" gradientUnits="userSpaceOnUse">
<stop stop-color="#343434"/>
<stop offset="1" stop-color="#9A9A9A"/>
</linearGradient>
<linearGradient id="paint2_linear_115_3" x1="107.727" y1="137.66" x2="27.2727" y2="137.66" gradientUnits="userSpaceOnUse">
<stop stop-color="#9A9A9A"/>
<stop offset="1" stop-color="#343434"/>
</linearGradient>
<linearGradient id="paint3_linear_115_3" x1="75" y1="43.0188" x2="0" y2="43.0188" gradientUnits="userSpaceOnUse">
<stop stop-color="#9A9A9A"/>
<stop offset="1" stop-color="#343434"/>
</linearGradient>
</defs>
</svg>
