<svg width="300" height="152" viewBox="0 0 300 152" fill="none" xmlns="http://www.w3.org/2000/svg">
<rect x="0.5" y="0.5" width="299" height="151" rx="11.5" stroke="#343434"/>
<g filter="url(#filter0_d_117_6)">
<path d="M150 99.1279C137.227 99.1279 126.872 88.7735 126.872 76C126.872 63.2265 137.227 52.8722 150 52.8722C162.774 52.8722 173.128 63.2265 173.128 76C173.128 88.7735 162.774 99.1279 150 99.1279ZM146.813 67.7087C146.674 67.6158 146.512 67.5625 146.345 67.5543C146.178 67.5461 146.012 67.5833 145.864 67.6621C145.716 67.7409 145.593 67.8583 145.507 68.0017C145.42 68.1451 145.375 68.3092 145.374 68.4765V83.5235C145.375 83.6909 145.42 83.855 145.507 83.9984C145.593 84.1418 145.716 84.2592 145.864 84.3379C146.012 84.4167 146.178 84.454 146.345 84.4458C146.512 84.4376 146.674 84.3842 146.813 84.2914L158.097 76.7702C158.224 76.6857 158.328 76.5713 158.4 76.4369C158.472 76.3025 158.51 76.1525 158.51 76C158.51 75.8476 158.472 75.6975 158.4 75.5632C158.328 75.4288 158.224 75.3143 158.097 75.2299L146.813 67.7087Z" fill="#2CFBCD"/>
</g>
<defs>
<filter id="filter0_d_117_6" x="106.872" y="32.8722" width="86.2557" height="86.2557" filterUnits="userSpaceOnUse" color-interpolation-filters="sRGB">
<feFlood flood-opacity="0" result="BackgroundImageFix"/>
<feColorMatrix in="SourceAlpha" type="matrix" values="0 0 0 0 0 0 0 0 0 0 0 0 0 0 0 0 0 0 127 0" result="hardAlpha"/>
<feOffset/>
<feGaussianBlur stdDeviation="10"/>
<feComposite in2="hardAlpha" operator="out"/>
<feColorMatrix type="matrix" values="0 0 0 0 0.10243 0 0 0 0 0.584314 0 0 0 0 0.477228 0 0 0 0.2 0"/>
<feBlend mode="normal" in2="BackgroundImageFix" result="effect1_dropShadow_117_6"/>
<feBlend mode="normal" in="SourceGraphic" in2="effect1_dropShadow_117_6" result="shape"/>
</filter>
</defs>
</svg>
